<svg xmlns="http://www.w3.org/2000/svg" width="52.499" height="37.28" viewBox="0 0 52.499 37.28">
  <defs>
    <style>
      .cls-1 {
        fill: #0d1227;
        fill-rule: evenodd;
      }
    </style>
  </defs>
  <path id="value-5.svg" class="cls-1" d="M977.658,1760.12l-0.41.48c0,0.08,0,.16.011,0.25l0.551-.66C977.752,1760.16,977.7,1760.14,977.658,1760.12Zm0.546,0.29-0.855,1.02c0.016,0.06.03,0.13,0.051,0.19l0.946-1.12C978.3,1760.47,978.249,1760.44,978.2,1760.41Zm0.522,0.33-1.112,1.32c0.03,0.05.059,0.1,0.091,0.15l1.16-1.38C978.818,1760.8,978.77,1760.77,978.726,1760.74Zm0.512,0.34L978,1762.55c0.042,0.04.081,0.08,0.118,0.12l1.259-1.5C979.329,1761.14,979.281,1761.11,979.238,1761.08Zm-0.667,1.97h0l0.008,0.01h0Zm0,0,0.008,0.01,1.3-1.54c-0.047-.04-0.09-0.06-0.135-0.1l-1.286,1.53Zm0.455,0.41h0.008l1.341-1.59-0.134-.09-1.33,1.58Zm0,0h0Zm0.456,0.4h0l0.007,0.01h0Zm0,0,0.007,0.01,1.381-1.64c-0.044-.03-0.09-0.07-0.133-0.1l-1.371,1.63Zm0.455,0.41h0.007l1.418-1.68c-0.044-.03-0.089-0.07-0.133-0.1l-1.408,1.68Zm0,0h0Zm0.455,0.4h0l0.007,0.01h0Zm0,0,0.007,0.01,1.452-1.73c-0.043-.03-0.089-0.06-0.131-0.09l-1.443,1.71Zm0.455,0.41h0Zm0,0h0.007l1.484-1.76c-0.043-.03-0.088-0.07-0.131-0.1l-1.476,1.76Zm0.455,0.4h0l0.007,0.01h0Zm0,0,0.007,0.01,1.515-1.8c-0.044-.03-0.088-0.07-0.131-0.1l-1.506,1.79Zm0.455,0.41h0.007l1.544-1.83c-0.045-.03-0.086-0.07-0.131-0.1l-1.536,1.82Zm0,0h0Zm0.455,0.4,0.007,0.01,1.571-1.87a1.124,1.124,0,0,1-.129-0.1l-1.565,1.86Zm0,0h0l0.007,0.01h0Zm0.455,0.41h0Zm0,0h0.007l1.6-1.89a1.226,1.226,0,0,0-.13-0.1l-1.59,1.88Zm0.455,0.4h0l0.007,0.01h0Zm0,0,0.007,0.01,1.623-1.93c-0.044-.03-0.086-0.07-0.129-0.1l-1.616,1.92Zm0.455,0.41h0.007l1.647-1.95a1.218,1.218,0,0,0-.129-0.1l-1.64,1.94Zm0,0h0Zm0.455,0.4h0l0.007,0.01h0Zm0,0,0.007,0.01,1.67-1.98c-0.042-.04-0.087-0.07-0.129-0.11l-1.663,1.98Zm0.455,0.41h0Zm0,0h0.007l1.692-2.01a1.117,1.117,0,0,1-.128-0.1l-1.686,2Zm0.455,0.4,0.007,0.01,1.713-2.04c-0.042-.03-0.086-0.07-0.128-0.1l-1.708,2.03Zm0,0h0l0.007,0.01h0Zm0.455,0.41H985.4l1.735-2.06a1.044,1.044,0,0,1-.129-0.1l-1.728,2.05Zm0,0h0Zm0.455,0.4h0l0.007,0.01h0Zm0,0,0.007,0.01,1.754-2.08c-0.043-.04-0.085-0.07-0.128-0.11l-1.748,2.08Zm0.455,0.41h0.007l1.774-2.1c-0.006-.01-0.011-0.01-0.017-0.02l-0.111-.09-1.768,2.1Zm0,0h0Zm0.455,0.4,0.007,0.01,1.8-2.13c-0.042-.04-0.085-0.07-0.128-0.11l-1.79,2.13Zm0,0h0l0.007,0.01h0Zm0.455,0.41h0.007l1.817-2.15c-0.043-.04-0.084-0.07-0.128-0.11l-1.811,2.15Zm0,0h0Zm0.455,0.4,0.007,0.01,1.837-2.18c-0.042-.04-0.086-0.07-0.128-0.11l-1.831,2.18Zm0,0h0l0.007,0.01h0Zm0.455,0.41h0.007l1.854-2.2c-0.042-.03-0.085-0.07-0.127-0.1l-1.849,2.19Zm0,0h0Zm0.455,0.4h0l0.007,0.01h0Zm0,0,0.007,0.01,1.869-2.22c-0.043-.04-0.084-0.07-0.126-0.11l-1.865,2.22Zm0.455,0.41h0.008l1.881-2.23c-0.041-.04-0.084-0.07-0.126-0.11l-1.878,2.23Zm0,0h0Zm0.455,0.4,0.007,0.01,1.893-2.25c-0.041-.04-0.084-0.07-0.126-0.11l-1.889,2.25Zm0,0h0l0.007,0.01h0Zm0.455,0.41h0.007l1.9-2.26c-0.041-.03-0.083-0.07-0.124-0.1l-1.9,2.25Zm0,0h0Zm0.455,0.4,0.007,0.01,1.907-2.27c-0.041-.03-0.082-0.07-0.124-0.1l-1.9,2.26Zm0,0h0l0.007,0.01h0Zm0.455,0.41h0Zm0,0h0.007l1.91-2.27a1.337,1.337,0,0,1-.123-0.11l-1.909,2.27Zm0.455,0.4,0.007,0.01,1.911-2.27c-0.041-.04-0.081-0.07-0.123-0.11l-1.91,2.27Zm0,0h0l0.007,0.01h0Zm0.455,0.41h0.008l1.907-2.26a1.211,1.211,0,0,0-.122-0.11l-1.908,2.26Zm0,0h0Zm0.455,0.4,0.008,0.01,1.9-2.26c-0.04-.04-0.08-0.07-0.12-0.11l-1.9,2.26Zm0,0h0l0.008,0.01h0Zm0.455,0.41h0Zm0,0h0.008l1.89-2.24-0.119-.12-1.894,2.25Zm0.455,0.4h0l0.008,0.01h0Zm0,0,0.008,0.01,1.875-2.23c-0.039-.04-0.077-0.08-0.118-0.12l-1.88,2.24Zm0.455,0.41h0.007l1.857-2.2c-0.039-.04-0.077-0.08-0.117-0.12l-1.862,2.21Zm0,0h0Zm0.455,0.4h0l0.007,0.01h0Zm0,0,0.007,0.01,1.833-2.18c-0.037-.04-0.077-0.08-0.116-0.12l-1.839,2.19Zm0.455,0.41h0Zm0,0h0.008l1.8-2.14c-0.038-.04-0.074-0.08-0.114-0.12l-1.811,2.15Zm0.455,0.4h0l0.008,0.01h0Zm0,0,0.008,0.01,1.764-2.1c-0.036-.04-0.074-0.08-0.112-0.12l-1.775,2.11Zm0.455,0.41h0.008l1.718-2.04c-0.035-.04-0.072-0.08-0.109-0.12l-1.732,2.05Zm0,0h0Zm0.455,0.4,0.008,0.01,1.66-1.97a1,1,0,0,0-.106-0.13l-1.677,1.99Zm0,0h0l0.008,0.01h0Zm0.455,0.4,0.008,0.01,1.584-1.88c-0.029-.04-0.062-0.09-0.1-0.14l-1.607,1.91Zm0,0h0l0.008,0.01h0Zm0.455,0.41,0.008,0.01,1.26-1.5c0-.1,0-0.18,0-0.26l-1.388,1.65Zm0,0h0l0.008,0.01h0Zm0.456,0.4h0l0.007,0.01h0Zm0,0,0.007,0.01,0.833-.99c0-.08-0.01-0.16-0.014-0.24l-0.942,1.12Zm0.455,0.41,0.007,0.01,0.472-.56c-0.012-.08-0.023-0.15-0.033-0.22l-0.562.67Zm0,0h0l0.007,0.01h0Zm0.455,0.4h0l0.007,0.01h0Zm0,0,0.007,0.01,0.18-.21c-0.018-.07-0.034-0.13-0.051-0.2l-0.252.3Zm0.391,0.35s0,0.01,0,.01a0.663,0.663,0,0,0-.032-0.08l-0.023.03ZM972,1763.98l-0.2.24c0.048,0.03.1,0.05,0.143,0.08l0.283-.33C972.15,1763.97,972.072,1763.98,972,1763.98Zm0.854-.06-0.519.61,0.143,0.09,0.608-.72A1.741,1.741,0,0,0,972.856,1763.92Zm0.865-.09-0.854,1.02a1.069,1.069,0,0,0,.141.08l0.948-1.12A1.9,1.9,0,0,1,973.721,1763.83Zm0.879-.1-1.209,1.44,0.142,0.09,1.307-1.56Zm0.9-.12-1.583,1.88,0.141,0.09,1.689-2.01A2.082,2.082,0,0,1,975.5,1763.61Zm0.928-.16-1.992,2.37,0.14,0.09,2.11-2.51A2.178,2.178,0,0,1,976.427,1763.45Zm0.988-.22-2.462,2.92,0.139,0.09,2.61-3.1C977.611,1763.17,977.515,1763.2,977.415,1763.23Zm1.041-.28-0.007-.01-2.982,3.55,0.138,0.09,2.966-3.53Zm-0.007-.01h0l0.007,0.01h0Zm0.007,0.01h0l0.115,0.1h0Zm0.448,0.4h0l0.007,0.01h0Zm0.007,0.01-0.007-.01-2.926,3.47c0.046,0.03.092,0.07,0.138,0.1l2.91-3.46Zm0,0h0l0.115,0.1h0Zm0.455,0.4-0.007-.01-2.871,3.41c0.046,0.03.09,0.07,0.136,0.1l2.858-3.4Zm-0.007-.01h0l0.007,0.01h0Zm0.007,0.01h0l0.116,0.1h0Zm0.455,0.41-0.007-.01-2.821,3.35,0.136,0.09,2.808-3.33Zm-0.007-.01h0l0.007,0.01h0Zm0.007,0.01h0l0.116,0.1h0Zm0.456,0.4-0.008-.01-2.771,3.3,0.135,0.09,2.759-3.28Zm-0.008-.01h0l0.008,0.01h0Zm0.008,0.01h0l0.115,0.1h0Zm0.454,0.41-0.007-.01L978,1768.21l0.135,0.09,2.715-3.22Zm-0.007-.01h0l0.007,0.01h0Zm0.007,0.01h0l0.116,0.1h0Zm0.448,0.39h0l0.008,0.01h0Zm0.008,0.01-0.008-.01-2.683,3.19a1.163,1.163,0,0,1,.134.1l2.672-3.18Zm0,0h0l0.115,0.1h0Zm0.454,0.4h-0.007l-2.642,3.14,0.133,0.09,2.632-3.12Zm-0.007,0h0Zm0.007,0h0l0.116,0.11h0Zm0.455,0.41-0.007-.01-2.6,3.1,0.132,0.09,2.6-3.08Zm-0.007-.01h0l0.007,0.01h0Zm0.007,0.01h0l0.116,0.1h0Zm0.456,0.4h-0.008l-2.568,3.05a1.059,1.059,0,0,1,.131.1l2.56-3.04Zm-0.008,0h0Zm0.008,0h0l0.115,0.11h0Zm0.455,0.41-0.008-.01-2.535,3.02,0.131,0.09,2.527-3Zm-0.008-.01h0l0.008,0.01h0Zm0.008,0.01h0l0.115,0.1h0Zm0.455,0.4h-0.008l-2.5,2.97a1.132,1.132,0,0,0,.13.1l2.5-2.96Zm-0.008,0h0Zm0.008,0h0l0.115,0.11h0Zm0.447,0.4h0l0.008,0.01h0Zm0.008,0.01-0.008-.01-2.476,2.94a1.132,1.132,0,0,0,.13.1l2.469-2.93Zm0,0h0l0.115,0.1h0Zm0.455,0.4h-0.008l-2.449,2.91a1.124,1.124,0,0,1,.129.1l2.443-2.9Zm-0.008,0h0Zm0.008,0h0l0.115,0.11h0Zm0.447,0.4h0l0.007,0.01h0Zm0.007,0.01-0.007-.01-2.426,2.89a1.117,1.117,0,0,1,.128.1l2.421-2.88Zm0,0h0l0.116,0.1h0Zm0.448,0.4h0Zm0.008,0h-0.008l-2.4,2.85c0.042,0.04.086,0.07,0.128,0.11l2.4-2.85Zm0,0h0l0.115,0.11h0Zm0.448,0.4h0l0.007,0.01h0Zm0.007,0.01-0.007-.01-2.387,2.84c0.043,0.03.085,0.07,0.127,0.1l2.382-2.83Zm0,0h0l0.115,0.1h0Zm0.447,0.4h0Zm0.008,0h-0.008l-2.369,2.81c0.042,0.04.086,0.07,0.128,0.11l2.364-2.81Zm0,0h0l0.115,0.11h0Zm0.448,0.4h0l0.007,0.01h0Zm0.007,0.01-0.007-.01-2.355,2.8c0.042,0.03.084,0.07,0.126,0.1l2.351-2.79Zm0,0h0l0.115,0.1h0Zm0.455,0.4h-0.008l-2.342,2.78c0.042,0.03.085,0.07,0.126,0.1l2.339-2.77Zm-0.008,0h0Zm0.008,0h0l0.115,0.11h0Zm0.448,0.4h0l0.007,0.01h0Zm0.007,0.01-0.007-.01-2.333,2.77c0.042,0.04.083,0.07,0.125,0.11l2.33-2.77Zm0,0h0l0.115,0.1h0Zm0.448,0.4h0Zm0.007,0h-0.007l-2.325,2.76a1.231,1.231,0,0,1,.125.11l2.322-2.76Zm0,0h0l0.115,0.11h0Zm0.448,0.4h0l0.007,0.01h0Zm0.007,0.01-0.007-.01-2.32,2.76c0.042,0.03.083,0.07,0.124,0.1l2.318-2.75Zm0,0h0l0.115,0.1h0Zm0.455,0.4h-0.007l-2.316,2.75a1.225,1.225,0,0,1,.124.11l2.314-2.75Zm-0.007,0h0Zm0.007,0h0l0.115,0.11h0Zm0.455,0.41-0.007-.01-2.315,2.75c0.041,0.04.082,0.07,0.122,0.11l2.315-2.75Zm-0.007-.01h0l0.007,0.01h0Zm0.007,0.01h0l0.115,0.1h0Zm0.448,0.4h0Zm0.007,0h-0.007l-2.315,2.75a1.2,1.2,0,0,1,.121.11l2.316-2.75Zm0,0h0l0.115,0.11h0Zm0.455,0.41-0.007-.01-2.319,2.76a1.2,1.2,0,0,1,.121.11l2.32-2.76Zm-0.007-.01h0l0.007,0.01h0Zm0.007,0.01h0l0.115,0.1h0Zm0.455,0.4h-0.007l-2.324,2.76c0.04,0.04.079,0.07,0.12,0.11l2.326-2.76Zm-0.007,0h0Zm0.007,0h0l0.115,0.11h0Zm0.455,0.41-0.007-.01-2.333,2.77a1.2,1.2,0,0,0,.121.11l2.334-2.77Zm-0.007-.01h0l0.007,0.01h0Zm0.007,0.01h0l0.115,0.1h0Zm0.448,0.4h0Zm0.007,0h-0.007l-2.343,2.78c0.041,0.04.08,0.07,0.12,0.11l2.345-2.78Zm0,0h0l0.115,0.11h0Zm0.448,0.4h0l0.007,0.01h0Zm0.007,0.01-0.007-.01-2.354,2.8c0.04,0.04.079,0.07,0.119,0.11l2.357-2.8Zm0,0h0l0.115,0.1h0Zm0.455,0.4h-0.007l-2.369,2.81a1.186,1.186,0,0,0,.118.11l2.373-2.81Zm-0.007,0h0Zm0.007,0h0l0.115,0.11h0Zm0.448,0.4h0l0.007,0.01h0Zm0.007,0.01-0.007-.01-2.386,2.84a1.186,1.186,0,0,1,.118.11l2.39-2.84Zm0,0h0l0.115,0.1h0Zm0.455,0.4h-0.007l-2.405,2.85c0.04,0.04.077,0.08,0.117,0.12l2.41-2.86Zm-0.007,0h0Zm0.007,0h0l0.115,0.11h0Zm0.455,0.41-0.007-.01-2.427,2.88c0.038,0.04.079,0.08,0.117,0.12l2.432-2.89Zm-0.007-.01h0l0.007,0.01h0Zm0.007,0.01h0l0.115,0.1h0Zm0.448,0.4h0Zm0.007,0h-0.007l-2.451,2.91a1.3,1.3,0,0,0,.116.11l2.457-2.91Zm0,0h0l0.115,0.11h0Zm0.448,0.4h0l0.007,0.01h0Zm0.007,0.01-0.007-.01-2.477,2.94,0.115,0.12,2.484-2.95Zm0,0h0l0.115,0.1h0Zm0.455,0.4h-0.007l-2.506,2.97c0.039,0.04.076,0.08,0.114,0.12l2.514-2.98Zm-0.007,0h0Zm0.007,0h0l0.115,0.11h0Zm0.455,0.41-0.007-.01-2.538,3.02a1.2,1.2,0,0,1,.113.12l2.547-3.03Zm-0.007-.01h0l0.007,0.01h0Zm0.007,0.01h0l0.115,0.1h0Zm0.448,0.4h0Zm0.007,0H996.2l-2.573,3.05c0.039,0.04.076,0.08,0.113,0.12l2.582-3.07Zm0,0h0l0.115,0.1h0Zm0.455,0.41-0.007-.01-2.611,3.1c0.037,0.04.078,0.09,0.112,0.12l2.621-3.11Zm-0.007-.01h0l0.007,0.01h0Zm0.007,0.01h0l0.115,0.1h0Zm0.448,0.4h0Zm0.007,0h-0.007l-2.653,3.15c0.039,0.04.077,0.08,0.11,0.12l2.666-3.17Zm0,0h0l0.116,0.1h0Zm0.455,0.41-0.007-.01-2.671,3.17c0.078,0,.151-0.01.228-0.01l2.566-3.05Zm-0.007-.01h0l0.007,0.01h0Zm0.007,0.01h0l0.116,0.1h0Zm0.455,0.4h-0.007l-2.28,2.7c0.077,0,.154-0.01.229-0.01l2.174-2.59Zm-0.007,0h0Zm0.007,0h0l0.116,0.1h0Zm0.51,0.46h0l0-.01a0.228,0.228,0,0,1-.06-0.05l-1.882,2.24a1.817,1.817,0,0,1,.23-0.02l1.777-2.11A0.3,0.3,0,0,0,998.532,1780.82Zm0,0h0s0-.01,0-0.01Zm0.409,0.33-1.494,1.77c0.077-.01.158-0.01,0.232-0.02l1.392-1.65A1.47,1.47,0,0,0,998.941,1781.15Zm0.494,0.35-1.118,1.33a1.994,1.994,0,0,1,.237-0.02l1.02-1.22A0.53,0.53,0,0,1,999.435,1781.5Zm0.527,0.32-0.755.9,0.244-.03,0.659-.79A0.97,0.97,0,0,1,999.962,1781.82Zm0.588,0.25-0.41.49c0.1-.02.18-0.04,0.26-0.06l0.33-.38A1.209,1.209,0,0,1,1000.55,1782.07Zm-18.9-27.95-0.3.56c0.015,0.07.036,0.15,0.062,0.24l0.4-.76A1.49,1.49,0,0,0,981.653,1754.12Zm0.6,0.17-0.62,1.17a1.679,1.679,0,0,0,.092.18l0.686-1.3C982.352,1754.32,982.3,1754.31,982.249,1754.29Zm0.579,0.2-0.807,1.53a1.394,1.394,0,0,0,.121.13l0.841-1.6C982.93,1754.53,982.877,1754.51,982.828,1754.49Zm0.571,0.22-0.9,1.71c0.05,0.03.1,0.06,0.14,0.09l0.914-1.73C983.5,1754.76,983.448,1754.73,983.4,1754.71Zm0.719,0.3a1.089,1.089,0,0,0-.153-0.07l-0.933,1.77,0.144,0.08Zm-0.412,2.08,0.973-1.85-0.151-.06-0.965,1.83Zm0.53,0.3,1-1.9c-0.05-.02-0.1-0.05-0.151-0.07l-0.994,1.89Zm0.53,0.3,1.029-1.96-0.15-.06-1.022,1.93Zm0.531,0.29,1.053-2-0.15-.06-1.047,1.98Zm0.53,0.3,1.077-2.04c-0.049-.02-0.1-0.05-0.149-0.07l-1.072,2.03Zm0.53,0.3,1.1-2.09a1,1,0,0,1-.149-0.07l-1.094,2.08Zm0.53,0.29,1.12-2.12c-0.051-.02-0.1-0.05-0.149-0.07l-1.114,2.11Zm0.53,0.3,1.141-2.16c-0.051-.02-0.1-0.05-0.149-0.07l-1.135,2.15Zm0.531,0.3,1.159-2.2c-0.049-.02-0.1-0.05-0.149-0.07l-1.154,2.19Zm0.53,0.3,1.177-2.24a0.945,0.945,0,0,1-.148-0.07l-1.173,2.23Zm0.53,0.3,1.195-2.27c-0.05-.02-0.1-0.05-0.148-0.07l-1.19,2.25Zm0.53,0.29,1.212-2.29c-0.049-.03-0.1-0.05-0.148-0.08l-1.207,2.29Zm0.53,0.3,1.228-2.33c-0.05-.02-0.1-0.05-0.148-0.07l-1.223,2.32Zm0.531,0.3,1.243-2.36c-0.049-.02-0.1-0.05-0.148-0.07l-1.239,2.35Zm0.53,0.29,1.258-2.38a0.99,0.99,0,0,0-.148-0.07l-1.254,2.37Zm0.53,0.3,1.272-2.41c-0.049-.02-0.1-0.05-0.147-0.07l-1.269,2.4Zm0.53,0.3,1.287-2.44c-0.007,0-.013-0.01-0.02-0.01l-0.127-.06-1.283,2.43Zm0.53,0.3,1.3-2.47c-0.048-.03-0.1-0.05-0.147-0.08l-1.3,2.47Zm0.53,0.29,1.319-2.49c-0.05-.03-0.1-0.05-0.148-0.08l-1.314,2.49Zm0.531,0.3,1.332-2.52c-0.048-.03-0.1-0.05-0.147-0.08l-1.329,2.52Zm0.53,0.3,1.345-2.55a0.98,0.98,0,0,0-.147-0.07l-1.342,2.54Zm0.53,0.3,1.356-2.57c-0.049-.03-0.1-0.05-0.146-0.08l-1.353,2.57Zm0.53,0.29,1.366-2.59c-0.048-.02-0.1-0.05-0.146-0.07l-1.363,2.58Zm0.53,0.3,1.374-2.6c-0.048-.03-0.1-0.05-0.146-0.08l-1.371,2.6Zm0.531,0.3,1.379-2.62c-0.048-.02-0.1-0.05-0.145-0.07l-1.378,2.61Zm0.53,0.3,1.383-2.63c-0.048-.02-0.1-0.05-0.144-0.07l-1.382,2.62Zm0.53,0.29,1.386-2.62a1.036,1.036,0,0,0-.144-0.08l-1.386,2.62Zm0.53,0.3,1.386-2.63a1.087,1.087,0,0,1-.143-0.08l-1.386,2.63Zm0.531,0.3,1.383-2.62-0.142-.09-1.385,2.63Zm0.53,0.3,1.378-2.62c-0.05-.03-0.09-0.05-0.14-0.08l-1.382,2.62Zm0.53,0.29,1.368-2.6c-0.04-.02-0.09-0.05-0.14-0.08l-1.372,2.6Zm0.528,0.3,1.36-2.58c-0.04-.03-0.09-0.06-0.14-0.09l-1.362,2.59Zm0.53,0.3,1.35-2.55c-0.05-.03-0.09-0.06-0.14-0.09l-1.35,2.56Zm0.53,0.3,1.33-2.52c-0.04-.03-0.09-0.06-0.14-0.09l-1.33,2.53Zm0.53,0.29,1.31-2.47a1.213,1.213,0,0,0-.14-0.1l-1.31,2.49Zm0.53,0.3,1.28-2.43c-0.04-.03-0.09-0.06-0.13-0.09l-1.29,2.44Zm0.53,0.3,1.25-2.36a1.132,1.132,0,0,0-.13-0.1l-1.26,2.38Zm0.53,0.3,1.21-2.29a1.132,1.132,0,0,1-.13-0.1l-1.22,2.31Zm0.53,0.29,1.15-2.17a1.358,1.358,0,0,0-.12-0.12l-1.17,2.21Zm0.53,0.3,0.92-1.73c-0.02-.1-0.04-0.18-0.05-0.26l-1.01,1.91Zm0.53,0.3,0.61-1.15c-0.02-.08-0.05-0.15-0.07-0.23l-0.68,1.3Zm0.53,0.3,0.35-.65a1.8,1.8,0,0,1-.08-0.21l-0.41.78Zm0.53,0.29,0.14-.24a1.618,1.618,0,0,1-.1-0.18l-0.18.34Zm0.46,0.26a0.3,0.3,0,0,1-.05-0.07l-0.02.03Zm9.96,0.07a2.065,2.065,0,0,0-.4-0.25,0.116,0.116,0,0,0-.06-0.08l-1.92-1.11a10.891,10.891,0,0,0,1.36-2.51,7.762,7.762,0,0,0-.23-6.2,3.922,3.922,0,0,0-2.78-2.03l-26.189-8.35a0.226,0.226,0,0,0,.013-0.02,2.822,2.822,0,0,0-.3-0.11c-0.011,0-.021.01-0.032,0.01a2.73,2.73,0,0,0-2.593.55h0c-0.006.01-.012,0.01-0.018,0.02a5.315,5.315,0,0,0-1.5,1.87,4.251,4.251,0,0,0,.012,4.23,4.368,4.368,0,0,0-3.5,1.85c-1.366,1.74-1.5,3.94-.3,4.9h0l0.233,0.21c-8.873,2.23-12.939-.02-12.978-0.04a0.127,0.127,0,0,0-.163.02,0.132,0.132,0,0,0-.027.16l10.364,20.18c0.8,2.38,2.589,3.2,4.885,3.2,2.59,0,5.821-1.04,9-2.07a23.791,23.791,0,0,1,6.87-1.27,25.7,25.7,0,0,0,5.319-.75h0.02a7.577,7.577,0,0,0,5.65-3.3,9.734,9.734,0,0,0,1.22-2.13l1.68,1.48h0l0.01,0.01a2.8,2.8,0,0,0,1.71.55,3.881,3.881,0,0,0,1.3-.23,6.631,6.631,0,0,0,3.08-2.33C1017.87,1774.03,1017.99,1771.13,1016.39,1769.91Zm-1.35-.53a4.3,4.3,0,0,0-2.35.5,7.309,7.309,0,0,0,1.15-1.2Zm-0.14-9.48a7.433,7.433,0,0,1,.21,5.96c-1.14,2.96-3.2,4.86-5.5,5.07a2.665,2.665,0,0,1-1.13-.17,2.452,2.452,0,0,0,.27.02,6.091,6.091,0,0,0,4.49-2.59,0.02,0.02,0,0,1,.02-0.01v-0.02a9.473,9.473,0,0,0,1.18-1.93,7,7,0,0,0,.29-5.92,3.024,3.024,0,0,0-2.9-1.97,6.906,6.906,0,0,0-5.36,4.06,7.827,7.827,0,0,0-.56,5.28,4.489,4.489,0,0,0,2.23,2.74,2.177,2.177,0,0,1-.7-0.21,3.886,3.886,0,0,1-2.03-3.05,8.374,8.374,0,0,1,.76-4.8c1.49-3.25,4.47-5.08,6.78-4.16a0.165,0.165,0,0,0,.07,0A3.686,3.686,0,0,1,1014.9,1759.9Zm-4.3,10.14a7.5,7.5,0,0,0,3.17-7.07,3.377,3.377,0,0,0-1.79-2.66c-1.53-.72-3.6.51-4.62,2.73s-0.61,4.62.92,5.33a1.7,1.7,0,0,0,.74.16,3.558,3.558,0,0,0,2.88-2.29,4.44,4.44,0,0,0,.39-2.49,2.113,2.113,0,0,0-1.12-1.66v-0.01a1.534,1.534,0,0,0-1.45.16,3.17,3.17,0,0,0-1.18,1.38c-0.57,1.25-.33,2.6.54,3.01a0.99,0.99,0,0,0,.42.09,1.946,1.946,0,0,0,1.59-1.26,2.4,2.4,0,0,0,.22-1.37,1.206,1.206,0,0,0-.64-0.93h0a1.247,1.247,0,0,0-1.5.86,1.354,1.354,0,0,0,.2,1.65l-0.12.26a1.6,1.6,0,0,1-.33-2.02,2.02,2.02,0,0,1,.77-0.9,1.151,1.151,0,0,1,1.1-.1,1.962,1.962,0,0,1,.55,2.67,2.364,2.364,0,0,1-1.53,1.39,1.332,1.332,0,0,1-.84-0.09h0a1.833,1.833,0,0,1-.98-1.42,3.52,3.52,0,0,1,.3-1.96,3.474,3.474,0,0,1,1.29-1.5,1.835,1.835,0,0,1,1.7-.17,2.413,2.413,0,0,1,1.28,1.87,4.692,4.692,0,0,1-.42,2.66,4.1,4.1,0,0,1-2.61,2.4,2.1,2.1,0,0,1-1.36-.14c-1.7-.79-2.16-3.29-1.06-5.69a5.845,5.845,0,0,1,2.29-2.65,2.915,2.915,0,0,1,2.7-.22,3.639,3.639,0,0,1,1.94,2.86,8.215,8.215,0,0,1-1,5.09A7.179,7.179,0,0,1,1010.6,1770.04Zm-1-4.55a1.258,1.258,0,0,1,.96-2.08h0a0.941,0.941,0,0,1,.48.73,2.2,2.2,0,0,1-.19,1.21,1.436,1.436,0,0,1-1.65,1.03,1.289,1.289,0,0,1-.67-1.04,1.356,1.356,0,0,0,.73.9,0.142,0.142,0,0,0,.06.02,0.13,0.13,0,0,0,.12-0.08l0.23-.5a0.108,0.108,0,0,0,0-.11A0.134,0.134,0,0,0,1009.6,1765.49Zm4.71-2.61a3.906,3.906,0,0,0-2.1-3.07,3.14,3.14,0,0,0-2.94.23,6.114,6.114,0,0,0-2.41,2.77c-1.16,2.54-.64,5.21,1.19,6.06a2.239,2.239,0,0,0,.99.22,2.644,2.644,0,0,0,.55-0.06,4.335,4.335,0,0,0,2.8-2.55,4.905,4.905,0,0,0,.43-2.82,2.661,2.661,0,0,0-1.42-2.08,2.073,2.073,0,0,0-1.96.19,3.594,3.594,0,0,0-1.39,1.62,3.726,3.726,0,0,0-.33,2.12,2.113,2.113,0,0,0,1.13,1.62h0a1.517,1.517,0,0,0,.66.15,2.2,2.2,0,0,0,.36-0.04,2.65,2.65,0,0,0,1.72-1.54c0.57-1.26.27-2.59-.69-3.04a1.425,1.425,0,0,0-1.35.11,2.269,2.269,0,0,0-.25.18,2.456,2.456,0,0,1,.56-0.47,1.248,1.248,0,0,1,1.19-.15h0a1.868,1.868,0,0,1,.97,1.46,4.094,4.094,0,0,1-.37,2.34c-0.73,1.59-2.19,2.49-3.25,1.99-1.4-.65-1.75-2.88-0.79-4.96s2.86-3.26,4.26-2.6a3.136,3.136,0,0,1,1.63,2.46,7.222,7.222,0,0,1-3.15,6.86,3.786,3.786,0,0,1-1.59.55,4.392,4.392,0,0,1-2.59-2.83,7.529,7.529,0,0,1,.55-5.09,6.648,6.648,0,0,1,5.13-3.9h0.17a2.822,2.822,0,0,1,2.46,1.82,6.714,6.714,0,0,1-.29,5.68c-0.07.15-.14,0.3-0.22,0.45A8.683,8.683,0,0,0,1014.31,1762.88Zm-2.91-5.17c-0.04,0-.08.01-0.12,0.01a0.309,0.309,0,0,1,.08-0.02Zm-29.612-5.42a0.244,0.244,0,0,0,.027-0.03q0.085-.21.186-0.42l0.036-.07a0.141,0.141,0,0,0,0-.05c0.828-1.62,2.3-2.55,3.474-2.28a0.143,0.143,0,0,0-.045.19,0.147,0.147,0,0,0,.117.07,0.176,0.176,0,0,0,.07-0.02,1.916,1.916,0,0,1,.21-0.11H985.9a0.07,0.07,0,0,0,.008.01l1,0.32c-0.1.06-.2,0.11-0.3,0.18a0.138,0.138,0,0,0-.037.19,0.133,0.133,0,0,0,.113.06,0.106,0.106,0,0,0,.076-0.02,4.858,4.858,0,0,1,.456-0.28,0.219,0.219,0,0,0,.022-0.02l6.712,2.14a0.125,0.125,0,0,0-.019.13,0.136,0.136,0,0,0,.123.08,0.134,0.134,0,0,0,.059-0.02c0.066-.03.131-0.05,0.2-0.08l1.022,0.33c-0.085.04-.17,0.07-0.255,0.12a0.142,0.142,0,0,0-.055.19,0.147,0.147,0,0,0,.12.07,0.154,0.154,0,0,0,.065-0.02c0.16-.08.321-0.16,0.479-0.23,0.008,0,.009-0.01.016-0.01l6.725,2.14a0.123,0.123,0,0,0-.01.12,0.13,0.13,0,0,0,.12.08,0.075,0.075,0,0,0,.05-0.01,1.416,1.416,0,0,0,.22-0.07l1,0.32-0.24.09a0.136,0.136,0,0,0-.07.18,0.126,0.126,0,0,0,.12.09,0.142,0.142,0,0,0,.06-0.02,4.94,4.94,0,0,1,.49-0.19,0.085,0.085,0,0,0,.03-0.03l6.74,2.15a0.138,0.138,0,0,0-.03.12,0.127,0.127,0,0,0,.08.08,5.3,5.3,0,0,0-1.38.45,0.128,0.128,0,0,0-.12,0c-0.16.1-.31,0.2-0.47,0.31-0.01.01-.01,0.03-0.02,0.04a8.571,8.571,0,0,0-3.08,3.69,9.915,9.915,0,0,0-.44,1.14,0.01,0.01,0,0,0-.01.01c-0.06.17-.12,0.35-0.17,0.53a0.088,0.088,0,0,0,.01.07,9.451,9.451,0,0,0-.24,1.46,0.129,0.129,0,0,0-.12.1c-0.02.19-.04,0.38-0.05,0.56a0.143,0.143,0,0,0,.13.15h0.01c0.01,0,.01-0.01.02-0.01a7.452,7.452,0,0,0,.08.95,4.925,4.925,0,0,0,.98,2.3l-16.665-9.35-6.546-3.8a2.075,2.075,0,0,0-.746-0.36A3.554,3.554,0,0,1,981.788,1752.29Zm-3.322,5.66a3.862,3.862,0,0,1,3.561-1.7,1.994,1.994,0,0,0,.456.31h0l6.857,3.85,16.62,9.63a4.831,4.831,0,0,0-2.34.23,8.584,8.584,0,0,0-3.977,3.02c-1.811,2.41-2.274,5.28-1.334,7.14l-20.177-17.95h0a0.034,0.034,0,0,1,0-.01C977.039,1761.6,977.191,1759.57,978.466,1757.95Zm17.65,24.85a23.31,23.31,0,0,0-6.938,1.28c-5.864,1.9-11.927,3.85-13.547-.98l-10.184-19.83c1.2,0.52,5.3,1.82,12.989-.15l20.65,18.37a0.12,0.12,0,0,0,.079.03c0.038,0.03.072,0.07,0.112,0.1a3.455,3.455,0,0,0,1.363.61A25.639,25.639,0,0,1,996.116,1782.8Zm10.794-3.95a7.943,7.943,0,0,1-4.42,3.08,6.92,6.92,0,0,0,3.2-2.43c1.84-2.46,1.97-5.51.29-6.8a2.666,2.666,0,0,0-2.53-.27,5.539,5.539,0,0,0-2.57,1.95,5.635,5.635,0,0,0-1.167,3.02,2.721,2.721,0,0,0,.947,2.39,1.85,1.85,0,0,0,1.12.36,3.831,3.831,0,0,0,2.86-1.67c1.14-1.52,1.22-3.41.16-4.22-0.76-.58-2.06-0.16-2.88.94s-0.88,2.47-.12,3.06a1.113,1.113,0,0,0,.65.2,1.328,1.328,0,0,0,.47-0.08,2.36,2.36,0,0,0,1.1-.83,2.394,2.394,0,0,0,.5-1.29,1.2,1.2,0,0,0-.42-1.05,0.9,0.9,0,0,0-.85-0.1,1.708,1.708,0,0,0-.81.62,1.288,1.288,0,0,0-.05,1.75,0.235,0.235,0,0,0,.08.02,0.143,0.143,0,0,0,.11-0.05,0.13,0.13,0,0,0-.02-0.19,1.045,1.045,0,0,1,.1-1.37,1.522,1.522,0,0,1,.68-0.52,0.6,0.6,0,0,1,.59.06,0.9,0.9,0,0,1,.31.81,2.009,2.009,0,0,1-.44,1.14,2.064,2.064,0,0,1-.97.74,0.939,0.939,0,0,1-.86-0.08c-0.65-.5-0.57-1.7.16-2.68s1.87-1.37,2.51-.88c0.93,0.72.83,2.44-.22,3.84s-2.67,1.96-3.6,1.25a2.464,2.464,0,0,1-.835-2.15,5.3,5.3,0,0,1,1.115-2.87,5.2,5.2,0,0,1,2.44-1.86,2.37,2.37,0,0,1,2.27.23c1.57,1.2,1.41,4.08-.34,6.42s-4.46,3.26-6.028,2.06c-1.943-1.48-1.755-5.05.418-7.94a8.285,8.285,0,0,1,3.84-2.93,5.152,5.152,0,0,1,1.59-.27,3.224,3.224,0,0,1,2.03.65,3.884,3.884,0,0,1,1.34,3.42A8.408,8.408,0,0,1,1006.91,1778.85Zm2.02-4.51a4.144,4.144,0,0,0-1.44-3.65,4.231,4.231,0,0,0-.53-0.33,0.147,0.147,0,0,1-.02-0.04,5.306,5.306,0,0,0,2.5.9c0.06,0,.13-0.01.2-0.01a5.288,5.288,0,0,0,1.87-.55,7.275,7.275,0,0,0-1.21,1.26,6.741,6.741,0,0,0-1.4,3.62,3.965,3.965,0,0,0,.28,1.73l-0.73-.65A7.5,7.5,0,0,0,1008.93,1774.34Zm6.97,1.86a6.437,6.437,0,0,1-2.86,2.21,5.683,5.683,0,0,0,1.97-1.67c1.43-1.91,1.53-4.28.22-5.28a2.086,2.086,0,0,0-1.98-.22,4.245,4.245,0,0,0-1.99,1.52,4.314,4.314,0,0,0-.91,2.34,2.1,2.1,0,0,0,.74,1.86,1.439,1.439,0,0,0,.89.29,2.279,2.279,0,0,0,.66-0.11,3.4,3.4,0,0,0,1.56-1.19c0.89-1.18.95-2.66,0.12-3.29a1.185,1.185,0,0,0-1.14-.13,2.365,2.365,0,0,0-1.12.86,1.755,1.755,0,0,0-.08,2.4,0.8,0.8,0,0,0,.51.16,1.242,1.242,0,0,0,.37-0.06,1.808,1.808,0,0,0,.86-0.66,1.351,1.351,0,0,0,.06-1.84h0a0.984,0.984,0,0,0-1.32.4,1,1,0,0,0-.03,1.39,0.114,0.114,0,0,0,.08.03,0.161,0.161,0,0,0,.11-0.05,0.155,0.155,0,0,0-.03-0.2,0.76,0.76,0,0,1,.09-1,0.736,0.736,0,0,1,.93-0.35h0a1.1,1.1,0,0,1-.1,1.46,1.6,1.6,0,0,1-.73.56,0.7,0.7,0,0,1-.64-0.06,1.522,1.522,0,0,1,.13-2.02,2.255,2.255,0,0,1,1-.76,0.967,0.967,0,0,1,.89.09c0.7,0.54.62,1.84-.18,2.91a3.031,3.031,0,0,1-1.42,1.08,1.353,1.353,0,0,1-1.3-.13,1.827,1.827,0,0,1-.64-1.62,4.078,4.078,0,0,1,.86-2.2,3.99,3.99,0,0,1,1.86-1.42,1.817,1.817,0,0,1,1.72.18c1.19,0.91,1.07,3.11-.27,4.89s-3.4,2.5-4.6,1.59l-0.05-.05a2.971,2.971,0,0,1-.96-2.56,6.409,6.409,0,0,1,1.34-3.47,5.614,5.614,0,0,1,4.15-2.45,2.509,2.509,0,0,1,1.56.5C1017.71,1771.26,1017.56,1773.99,1015.9,1776.2Zm-32.88-23.22c0.064-.17.134-0.33,0.211-0.5a0.134,0.134,0,0,0-.065-0.18,0.14,0.14,0,0,0-.182.07c-0.079.17-.153,0.34-0.218,0.51a0.141,0.141,0,0,0,.078.18,0.085,0.085,0,0,0,.049.01A0.144,0.144,0,0,0,983.02,1752.98Zm0.948-1.82a0.148,0.148,0,0,0,.107-0.05c0.113-.15.229-0.28,0.348-0.41a0.144,0.144,0,0,0-.007-0.2,0.133,0.133,0,0,0-.192.01c-0.125.14-.246,0.28-0.363,0.43A0.136,0.136,0,0,0,983.968,1751.16Zm-1.465,3.23a0.134,0.134,0,0,0-.153.12c-0.025.19-.041,0.38-0.049,0.56a0.131,0.131,0,0,0,.131.14h0.006a0.131,0.131,0,0,0,.136-0.13c0.007-.17.023-0.35,0.047-0.54A0.138,0.138,0,0,0,982.5,1754.39Zm2.624-2.53a0.133,0.133,0,0,0,.11-0.06c0.107-.14.219-0.28,0.334-0.42a0.136,0.136,0,0,0-.205-0.18c-0.12.14-.237,0.29-0.349,0.44a0.134,0.134,0,0,0,.029.19A0.127,0.127,0,0,0,985.127,1751.86Zm-0.947,1.23c-0.076.17-.145,0.35-0.207,0.52a0.144,0.144,0,0,0,.082.18c0.015,0,.031.01,0.046,0.01a0.141,0.141,0,0,0,.129-0.1c0.06-.16.126-0.33,0.2-0.5a0.136,0.136,0,0,0-.069-0.18A0.137,0.137,0,0,0,984.18,1753.09Zm-0.494,2.86h0a0.136,0.136,0,0,0,.136-0.13c0-.18.016-0.36,0.036-0.54a0.128,0.128,0,0,0-.12-0.15,0.121,0.121,0,0,0-.151.12c-0.021.19-.033,0.38-0.038,0.56A0.134,0.134,0,0,0,983.686,1755.95Zm2.606-3.39a0.134,0.134,0,0,0,.112-0.06c0.1-.15.211-0.29,0.322-0.43a0.135,0.135,0,0,0-.02-0.19,0.133,0.133,0,0,0-.192.02c-0.115.14-.227,0.29-0.334,0.45a0.137,0.137,0,0,0,.034.19A0.2,0.2,0,0,0,986.292,1752.56Zm1.5-1.58a0.13,0.13,0,0,0,.082-0.03,4.917,4.917,0,0,1,.442-0.3,0.14,0.14,0,0,0,.047-0.19,0.139,0.139,0,0,0-.188-0.04,5.2,5.2,0,0,0-.464.31,0.135,0.135,0,0,0-.028.19A0.131,0.131,0,0,0,987.8,1750.98Zm-2.417,2.84c-0.071.17-.137,0.35-0.2,0.52a0.147,0.147,0,0,0,.085.18h0.044a0.13,0.13,0,0,0,.129-0.09q0.086-.255.19-0.51A0.136,0.136,0,1,0,985.379,1753.82Zm-0.439,2.87h0a0.137,0.137,0,0,0,.137-0.14q0-.27.027-0.54a0.143,0.143,0,0,0-.123-0.15,0.136,0.136,0,0,0-.149.13c-0.017.18-.027,0.37-0.028,0.56A0.141,0.141,0,0,0,984.94,1756.69Zm3.972-5.06a0.139,0.139,0,0,0,.086-0.03c0.139-.11.283-0.22,0.429-0.32a0.136,0.136,0,0,0,.037-0.19,0.141,0.141,0,0,0-.189-0.04c-0.152.11-.3,0.22-0.449,0.34a0.135,0.135,0,0,0-.02.19A0.118,0.118,0,0,0,988.912,1751.63Zm-1.451,1.64a0.135,0.135,0,0,0,.114-0.06c0.1-.16.2-0.3,0.31-0.44a0.146,0.146,0,0,0-.026-0.2,0.142,0.142,0,0,0-.191.03c-0.11.14-.218,0.3-0.321,0.46a0.139,0.139,0,0,0,.039.19A0.194,0.194,0,0,0,987.461,1753.27Zm-1.264,4.15a0.135,0.135,0,0,0,.137-0.13v-0.07c0-.16.006-0.31,0.018-0.47a0.134,0.134,0,0,0-.126-0.15,0.13,0.13,0,0,0-.146.12c-0.013.17-.019,0.34-0.019,0.5v0.07A0.134,0.134,0,0,0,986.2,1757.42Zm0.386-2.87c-0.069.17-.13,0.35-0.185,0.52a0.145,0.145,0,0,0,.089.18h0.041a0.129,0.129,0,0,0,.13-0.09q0.079-.255.179-0.51a0.141,0.141,0,0,0-.077-0.18A0.136,0.136,0,0,0,986.583,1754.55Zm3.451-2.25a0.114,0.114,0,0,0,.09-0.04,5.008,5.008,0,0,1,.416-0.33,0.149,0.149,0,0,0,.029-0.2,0.142,0.142,0,0,0-.191-0.03,5.516,5.516,0,0,0-.434.36,0.133,0.133,0,0,0-.012.19A0.14,0.14,0,0,0,990.034,1752.3Zm-1.4,1.68a0.126,0.126,0,0,0,.116-0.07c0.1-.15.2-0.3,0.3-0.45a0.137,0.137,0,0,0-.031-0.19,0.142,0.142,0,0,0-.191.03c-0.106.15-.209,0.31-0.308,0.47a0.14,0.14,0,0,0,.044.19A0.18,0.18,0,0,0,988.635,1753.98Zm-1.181,4.18h0a0.138,0.138,0,0,0,.133-0.14c0-.06,0-0.11,0-0.17,0-.12,0-0.25.011-0.37a0.137,0.137,0,1,0-.273-0.02c-0.007.13-.011,0.26-0.011,0.39,0,0.06,0,.12,0,0.18A0.137,0.137,0,0,0,987.454,1758.16Zm0.51-2.97a0.139,0.139,0,0,0-.175.09c-0.064.17-.122,0.35-0.174,0.53a0.138,0.138,0,0,0,.093.17h0.038a0.129,0.129,0,0,0,.131-0.09c0.05-.18.106-0.35,0.168-0.52A0.143,0.143,0,0,0,987.964,1755.19Zm1.85-.5a0.127,0.127,0,0,0,.118-0.07c0.091-.15.187-0.31,0.287-0.45a0.149,0.149,0,0,0-.037-0.2,0.141,0.141,0,0,0-.189.04c-0.1.15-.2,0.31-0.3,0.47a0.14,0.14,0,0,0,.049.19A0.092,0.092,0,0,0,989.814,1754.69Zm1.349-1.72a0.12,0.12,0,0,0,.094-0.04c0.132-.12.266-0.24,0.4-0.35a0.148,0.148,0,0,0,.021-0.2,0.133,0.133,0,0,0-.192-0.02c-0.142.12-.283,0.24-0.42,0.37a0.144,0.144,0,0,0,0,.2A0.178,0.178,0,0,0,991.163,1752.97Zm-2.446,5.1a0.158,0.158,0,0,0-.141.13c0,0.1-.006.19-0.006,0.28s0,0.19.006,0.28a0.14,0.14,0,0,0,.136.14h0.006a0.146,0.146,0,0,0,.131-0.15q-0.006-.135-0.006-0.27t0.006-.27A0.137,0.137,0,0,0,988.717,1758.07Zm0.456-2.15a0.146,0.146,0,0,0-.174.09c-0.061.18-.116,0.35-0.164,0.53a0.136,0.136,0,0,0,.095.17c0.012,0,.025.01,0.036,0.01a0.136,0.136,0,0,0,.132-0.1c0.046-.18.1-0.35,0.159-0.52A0.147,0.147,0,0,0,989.173,1755.92Zm1.824-.51a0.146,0.146,0,0,0,.119-0.07c0.088-.16.18-0.32,0.276-0.47a0.139,0.139,0,0,0-.041-0.19,0.141,0.141,0,0,0-.189.04q-0.147.24-.285,0.48a0.143,0.143,0,0,0,.053.19A0.162,0.162,0,0,0,991,1755.41Zm1.3-1.76a0.136,0.136,0,0,0,.1-0.05,5.017,5.017,0,0,1,.391-0.36,0.146,0.146,0,0,0,.014-0.2,0.134,0.134,0,0,0-.193-0.01c-0.137.12-.273,0.25-0.406,0.38a0.145,0.145,0,0,0,0,.2A0.171,0.171,0,0,0,992.3,1753.65Zm-2.2,5.3a0.132,0.132,0,0,0-.133-0.14,0.12,0.12,0,0,0-.14.13c0,0.06,0,.12,0,0.17,0,0.13,0,.26.011,0.39a0.133,0.133,0,0,0,.136.13h0.008a0.134,0.134,0,0,0,.129-0.14c-0.008-.13-0.011-0.25-0.011-0.38C990.1,1759.06,990.1,1759,990.1,1758.95Zm0.283-2.3a0.142,0.142,0,0,0-.172.09c-0.057.18-.109,0.36-0.153,0.54a0.128,0.128,0,0,0,.1.16,0.044,0.044,0,0,0,.033.01,0.133,0.133,0,0,0,.132-0.11c0.044-.17.093-0.34,0.149-0.52A0.134,0.134,0,0,0,990.383,1756.65Zm1.8-.53a0.126,0.126,0,0,0,.12-0.07c0.085-.16.174-0.32,0.266-0.47a0.138,0.138,0,0,0-.046-0.19,0.132,0.132,0,0,0-.187.05c-0.1.15-.187,0.31-0.274,0.48a0.143,0.143,0,0,0,.057.19A0.141,0.141,0,0,0,992.183,1756.12Zm1.255-1.79a0.141,0.141,0,0,0,.1-0.05c0.122-.13.249-0.26,0.378-0.38a0.137,0.137,0,0,0-.186-0.2c-0.134.13-.265,0.26-0.393,0.4a0.133,0.133,0,0,0,.008.19A0.118,0.118,0,0,0,993.438,1754.33Zm-1.841,3.05a0.14,0.14,0,0,0-.17.09q-0.081.27-.143,0.54a0.14,0.14,0,0,0,.1.17h0.031a0.135,0.135,0,0,0,.133-0.1c0.04-.18.088-0.35,0.14-0.53A0.136,0.136,0,0,0,991.6,1757.38Zm-0.244,2.3a0.138,0.138,0,0,0-.133-0.14,0.151,0.151,0,0,0-.139.14v0.07c0,0.16.006,0.33,0.018,0.49a0.141,0.141,0,0,0,.136.13h0.01a0.14,0.14,0,0,0,.126-0.15c-0.011-.16-0.017-0.31-0.017-0.47v-0.07Zm3.23-4.66a0.14,0.14,0,0,0,.1-0.05c0.12-.14.243-0.27,0.368-0.4a0.132,0.132,0,0,0,0-.19,0.133,0.133,0,0,0-.193,0c-0.129.13-.256,0.27-0.379,0.41a0.133,0.133,0,0,0,.012.19A0.114,0.114,0,0,0,994.583,1755.02Zm-1.21,1.82a0.128,0.128,0,0,0,.122-0.07c0.081-.17.165-0.32,0.255-0.48a0.138,0.138,0,1,0-.237-0.14c-0.091.16-.179,0.33-0.263,0.49a0.146,0.146,0,0,0,.062.19A0.127,0.127,0,0,0,993.373,1756.84Zm2.867-3.25a0.173,0.173,0,0,0,.071-0.01,3.507,3.507,0,0,1,.467-0.26,0.147,0.147,0,0,0,.063-0.19,0.136,0.136,0,0,0-.182-0.06c-0.163.08-.328,0.17-0.49,0.27A0.134,0.134,0,0,0,996.24,1753.59Zm-3.594,4.62c-0.052.18-.1,0.36-0.135,0.54a0.133,0.133,0,0,0,.105.16c0.009,0,.019.01,0.028,0.01a0.144,0.144,0,0,0,.134-0.11c0.037-.18.081-0.35,0.13-0.53a0.139,0.139,0,0,0-.094-0.17A0.134,0.134,0,0,0,992.646,1758.21Zm-0.176,2.07h0a0.135,0.135,0,0,0-.136.14c0,0.19.01,0.38,0.026,0.56a0.133,0.133,0,0,0,.136.12h0.012a0.132,0.132,0,0,0,.124-0.15c-0.016-.17-0.024-0.35-0.025-0.53A0.138,0.138,0,0,0,992.47,1760.28Zm1.258,0.74h0a0.134,0.134,0,0,0-.134.14c0,0.19.016,0.37,0.034,0.56a0.134,0.134,0,0,0,.136.12h0.013a0.134,0.134,0,0,0,.122-0.15c-0.018-.18-0.028-0.36-0.032-0.54A0.136,0.136,0,0,0,993.728,1761.02Zm0.139-2.08q-0.072.27-.126,0.54a0.145,0.145,0,0,0,.108.17h0.026a0.142,0.142,0,0,0,.134-0.11c0.035-.18.075-0.35,0.122-0.53A0.137,0.137,0,1,0,993.867,1758.94Zm1.866-3.23a0.146,0.146,0,0,0,.105-0.05c0.116-.14.234-0.28,0.356-0.41a0.133,0.133,0,0,0,0-.19,0.143,0.143,0,0,0-.193,0q-0.189.21-.368,0.42a0.146,0.146,0,0,0,.018.2A0.141,0.141,0,0,0,995.733,1755.71Zm1.609-1.48a0.194,0.194,0,0,0,.075-0.02,5.293,5.293,0,0,1,.457-0.28,0.142,0.142,0,0,0,.054-0.19,0.129,0.129,0,0,0-.185-0.05,3.824,3.824,0,0,0-.477.29A0.136,0.136,0,0,0,997.342,1754.23Zm-2.777,3.33a0.146,0.146,0,0,0,.123-0.07l0.043-.09c0.065-.14.133-0.27,0.2-0.4a0.131,0.131,0,0,0-.054-0.18,0.129,0.129,0,0,0-.185.05c-0.072.13-.142,0.27-0.208,0.4l-0.045.1a0.133,0.133,0,0,0,.064.18A0.121,0.121,0,0,0,994.565,1757.56Zm2.239-1.18a0.133,0.133,0,0,0,.084.03,0.129,0.129,0,0,0,.107-0.06c0.112-.14.227-0.28,0.345-0.41a0.146,0.146,0,0,0-.011-0.2,0.143,0.143,0,0,0-.193.01c-0.121.14-.24,0.28-0.355,0.43A0.147,0.147,0,0,0,996.8,1756.38Zm1.645-1.51a0.115,0.115,0,0,0,.08-0.02c0.147-.11.3-0.21,0.445-0.3a0.139,0.139,0,0,0,.046-0.19,0.141,0.141,0,0,0-.187-0.05c-0.155.1-.311,0.2-0.464,0.31a0.149,0.149,0,0,0-.03.2A0.151,0.151,0,0,0,998.449,1754.87Zm-2.385,2.66a0.139,0.139,0,0,0-.184.06c-0.041.08-.082,0.16-0.121,0.24s-0.083.17-.122,0.26a0.134,0.134,0,0,0,.068.18,0.123,0.123,0,0,0,.056.02,0.137,0.137,0,0,0,.124-0.08c0.039-.09.078-0.17,0.119-0.26s0.078-.16.118-0.23A0.144,0.144,0,0,0,996.064,1757.53Zm-1.091,2.69a0.134,0.134,0,0,0,.11.16h0.024a0.131,0.131,0,0,0,.135-0.11c0.031-.18.069-0.35,0.112-0.53a0.144,0.144,0,0,0-.1-0.17,0.139,0.139,0,0,0-.165.1C995.045,1759.86,995.006,1760.04,994.973,1760.22Zm0.007,1.53a0.137,0.137,0,0,0-.132.14c0.006,0.19.021,0.38,0.042,0.57a0.136,0.136,0,0,0,.136.12h0.015a0.143,0.143,0,0,0,.12-0.16c-0.02-.17-0.034-0.35-0.04-0.54A0.139,0.139,0,0,0,994.98,1761.75Zm2.986-4.67a0.122,0.122,0,0,0,.082.02,0.151,0.151,0,0,0,.109-0.05c0.108-.15.22-0.29,0.335-0.43a0.135,0.135,0,1,0-.209-0.17c-0.118.14-.233,0.28-0.344,0.43A0.146,0.146,0,0,0,997.966,1757.08Zm1.6-1.55a0.133,0.133,0,0,0,.084-0.03c0.143-.11.288-0.22,0.433-0.32a0.137,0.137,0,1,0-.15-0.23q-0.228.15-.451,0.33a0.135,0.135,0,0,0-.023.19A0.129,0.129,0,0,0,999.563,1755.53Zm-2.494,2.78-0.037.08c-0.069.14-.134,0.28-0.2,0.43a0.137,0.137,0,0,0,.072.18,0.1,0.1,0,0,0,.054.01,0.138,0.138,0,0,0,.125-0.08q0.09-.21.19-0.42l0.037-.08a0.132,0.132,0,0,0-.062-0.18A0.137,0.137,0,0,0,997.069,1758.31Zm-0.831,4.18a0.134,0.134,0,0,0-.129.14c0.009,0.19.025,0.38,0.049,0.56a0.136,0.136,0,0,0,.135.12h0.018a0.136,0.136,0,0,0,.117-0.15c-0.022-.18-0.038-0.36-0.046-0.54A0.127,0.127,0,0,0,996.238,1762.49Zm0.242-2.18a0.127,0.127,0,0,0-.163.1c-0.043.18-.079,0.37-0.109,0.55a0.148,0.148,0,0,0,.113.16h0.022a0.139,0.139,0,0,0,.135-0.12c0.029-.17.063-0.35,0.1-0.53A0.131,0.131,0,0,0,996.48,1760.31Zm1.781-1.28q-0.12.255-.224,0.51a0.131,0.131,0,0,0,.074.18,0.1,0.1,0,0,0,.052.01,0.136,0.136,0,0,0,.126-0.08c0.067-.17.14-0.33,0.218-0.5a0.132,0.132,0,0,0-.064-0.18A0.145,0.145,0,0,0,998.261,1759.03Zm0.95-1.22a0.134,0.134,0,0,0,.112-0.06c0.105-.15.213-0.29,0.324-0.44a0.135,0.135,0,0,0-.022-0.19,0.132,0.132,0,0,0-.191.02c-0.114.15-.226,0.3-0.334,0.45a0.135,0.135,0,0,0,.033.19A0.121,0.121,0,0,0,999.211,1757.81Zm-1.5,3.23a0.134,0.134,0,0,0-.162.1c-0.039.19-.072,0.37-0.1,0.55a0.138,0.138,0,0,0,.115.16h0.02a0.137,0.137,0,0,0,.135-0.12c0.026-.17.058-0.35,0.1-0.53A0.138,0.138,0,0,0,997.706,1761.04Zm-0.21,2.19a0.132,0.132,0,0,0-.128.14c0.012,0.19.031,0.38,0.057,0.56a0.137,0.137,0,0,0,.135.12h0.02a0.138,0.138,0,0,0,.115-0.16c-0.025-.17-0.043-0.35-0.055-0.54A0.125,0.125,0,0,0,997.5,1763.23Zm3.184-7.04a0.18,0.18,0,0,0,.09-0.04l0.42-.33a0.136,0.136,0,1,0-.16-0.22c-0.15.11-.29,0.22-0.44,0.34a0.152,0.152,0,0,0-.01.2A0.123,0.123,0,0,0,1000.68,1756.19Zm1.13,0.66a0.161,0.161,0,0,0,.09-0.03c0.13-.12.27-0.24,0.41-0.35a0.131,0.131,0,0,0,.02-0.19,0.14,0.14,0,0,0-.19-0.03l-0.42.36a0.142,0.142,0,0,0-.01.2A0.116,0.116,0,0,0,1001.81,1756.85Zm-2.876,4.92a0.143,0.143,0,0,0-.16.11c-0.036.18-.067,0.37-0.091,0.55a0.14,0.14,0,0,0,.117.16h0.018a0.138,0.138,0,0,0,.136-0.12q0.034-.27.087-0.54A0.14,0.14,0,0,0,998.934,1761.77Zm-0.179,2.19a0.139,0.139,0,0,0-.125.15c0.014,0.19.036,0.38,0.064,0.56a0.13,0.13,0,0,0,.135.11h0.021a0.133,0.133,0,0,0,.114-0.15c-0.028-.18-0.048-0.36-0.062-0.54A0.13,0.13,0,0,0,998.755,1763.96Zm0.7-4.2q-0.117.255-.216,0.51a0.141,0.141,0,0,0,.078.18,0.087,0.087,0,0,0,.049.01,0.131,0.131,0,0,0,.127-0.09c0.065-.16.135-0.33,0.21-0.5a0.134,0.134,0,0,0-.067-0.18A0.137,0.137,0,0,0,999.457,1759.76Zm0.923-1.25a0.125,0.125,0,0,0,.11-0.06c0.1-.15.21-0.3,0.32-0.44a0.14,0.14,0,0,0-.03-0.19,0.13,0.13,0,0,0-.19.02c-0.11.15-.22,0.3-0.32,0.46a0.131,0.131,0,0,0,.03.19A0.12,0.12,0,0,0,1000.38,1758.51Zm-0.36,6.19a0.132,0.132,0,0,0-.127.15c0.017,0.19.04,0.37,0.071,0.55a0.137,0.137,0,0,0,.136.12h0.02a0.134,0.134,0,0,0,.11-0.16c-0.03-.18-0.05-0.36-0.07-0.54A0.117,0.117,0,0,0,1000.02,1764.7Zm2.92-7.18a0.161,0.161,0,0,0,.09-0.03c0.13-.13.27-0.25,0.4-0.36a0.143,0.143,0,0,0,.02-0.2,0.14,0.14,0,0,0-.19-0.02c-0.14.12-.28,0.25-0.42,0.38a0.139,0.139,0,0,0,0,.19A0.116,0.116,0,0,0,1002.94,1757.52Zm1.77-1.27a0.142,0.142,0,0,0,.06-0.02c0.16-.08.32-0.15,0.49-0.22a0.122,0.122,0,0,0,.07-0.17,0.12,0.12,0,0,0-.17-0.08c-0.17.07-.34,0.14-0.51,0.23a0.127,0.127,0,0,0-.06.18A0.13,0.13,0,0,0,1004.71,1756.25Zm-4.06,4.23c-0.07.18-.14,0.35-0.2,0.52a0.14,0.14,0,0,0,.08.18,0.433,0.433,0,0,0,.05.01,0.14,0.14,0,0,0,.12-0.09c0.06-.17.13-0.34,0.2-0.51A0.137,0.137,0,0,0,1000.65,1760.48Zm0.9-1.26a0.143,0.143,0,0,0,.12-0.06,5.024,5.024,0,0,1,.3-0.45,0.14,0.14,0,0,0-.03-0.19,0.131,0.131,0,0,0-.19.03c-0.11.15-.21,0.3-0.31,0.46a0.126,0.126,0,0,0,.04.19A0.145,0.145,0,0,0,1001.55,1759.22Zm-1.54,3.4c-0.038.18-.066,0.37-0.087,0.55a0.138,0.138,0,0,0,.117.15h0.02a0.124,0.124,0,0,0,.13-0.12c0.03-.18.05-0.35,0.08-0.53a0.126,0.126,0,0,0-.11-0.16A0.121,0.121,0,0,0,1000.01,1762.62Zm5.79-5.76a0.2,0.2,0,0,0,.07-0.01c0.15-.09.31-0.17,0.47-0.25a0.137,0.137,0,0,0-.11-0.25c-0.17.08-.34,0.17-0.5,0.26a0.131,0.131,0,0,0-.05.18A0.121,0.121,0,0,0,1005.8,1756.86Zm-1.73,1.34a0.128,0.128,0,0,0,.1-0.04c0.13-.13.26-0.25,0.39-0.37a0.142,0.142,0,0,0,.01-0.2,0.14,0.14,0,0,0-.19-0.01c-0.14.13-.27,0.25-0.4,0.39a0.123,0.123,0,0,0,0,.19A0.109,0.109,0,0,0,1004.07,1758.2Zm-2.79,7.23a0.146,0.146,0,0,0-.12.16,5.206,5.206,0,0,0,.08.55,0.122,0.122,0,0,0,.13.11h0.02a0.126,0.126,0,0,0,.11-0.16c-0.03-.17-0.05-0.35-0.07-0.53A0.137,0.137,0,0,0,1001.28,1765.43Zm1.45-5.5a0.125,0.125,0,0,0,.11-0.06c0.1-.16.2-0.31,0.3-0.46a0.14,0.14,0,0,0-.23-0.16c-0.1.16-.2,0.31-0.3,0.47a0.14,0.14,0,0,0,.04.19A0.235,0.235,0,0,0,1002.73,1759.93Zm-1.56,3.98a0.134,0.134,0,0,0,.12.15h0.01a0.14,0.14,0,0,0,.14-0.12c0.02-.18.04-0.36,0.07-0.54a0.139,0.139,0,0,0-.11-0.16,0.132,0.132,0,0,0-.16.11A5.353,5.353,0,0,0,1001.17,1763.91Zm0.69-2.7a5.546,5.546,0,0,0-.2.52,0.14,0.14,0,0,0,.08.18c0.02,0,.03.01,0.05,0.01a0.148,0.148,0,0,0,.13-0.1,4.291,4.291,0,0,1,.19-0.5,0.14,0.14,0,0,0-.08-0.18A0.122,0.122,0,0,0,1001.86,1761.21Zm2.04-.57a0.131,0.131,0,0,0,.12-0.06c0.09-.16.19-0.32,0.29-0.47a0.144,0.144,0,0,0-.04-0.19,0.142,0.142,0,0,0-.19.04c-0.1.16-.2,0.31-0.29,0.48a0.128,0.128,0,0,0,.04.18A0.108,0.108,0,0,0,1003.9,1760.64Zm3-3.15a0.108,0.108,0,0,0,.07-0.02c0.15-.09.31-0.18,0.46-0.26a0.137,0.137,0,0,0,.06-0.19,0.132,0.132,0,0,0-.18-0.06c-0.16.09-.33,0.18-0.49,0.28a0.14,0.14,0,0,0-.04.19A0.131,0.131,0,0,0,1006.9,1757.49Zm-1.78,1.36a0.14,0.14,0,0,0,.09.03,0.128,0.128,0,0,0,.1-0.04c0.12-.13.25-0.26,0.38-0.38a0.138,0.138,0,1,0-.19-0.2q-0.195.18-.39,0.39A0.142,0.142,0,0,0,1005.12,1758.85Zm-2.59,5.94h0.02a0.124,0.124,0,0,0,.13-0.12c0.02-.18.04-0.36,0.07-0.54a0.137,0.137,0,1,0-.27-0.04c-0.03.19-.05,0.37-0.07,0.55A0.13,0.13,0,0,0,1002.53,1764.79Zm0.01,1.38a0.142,0.142,0,0,0-.12.15,5.03,5.03,0,0,0,.09.56,0.138,0.138,0,0,0,.13.11h0.03a0.151,0.151,0,0,0,.11-0.16c-0.04-.18-0.06-0.36-0.09-0.54A0.136,0.136,0,0,0,1002.54,1766.17Zm0.7-4.31a0.14,0.14,0,0,0-.18.08c-0.07.17-.13,0.35-0.19,0.52a0.146,0.146,0,0,0,.09.18H1003a0.129,0.129,0,0,0,.13-0.09c0.05-.17.12-0.34,0.18-0.51A0.136,0.136,0,0,0,1003.24,1761.86Zm2.01-1.19c-0.1.16-.19,0.32-0.28,0.48a0.134,0.134,0,0,0,.05.19,0.145,0.145,0,0,0,.07.02,0.136,0.136,0,0,0,.11-0.07c0.09-.16.19-0.32,0.28-0.47A0.137,0.137,0,0,0,1005.25,1760.67Zm2.75-2.54a0.108,0.108,0,0,0,.07-0.03c0.15-.1.31-0.19,0.46-0.28a0.136,0.136,0,0,0-.13-0.24c-0.16.09-.32,0.19-0.48,0.29a0.144,0.144,0,0,0-.04.19A0.152,0.152,0,0,0,1008,1758.13Zm-4.19,8.78a0.134,0.134,0,0,0-.12.15,4.852,4.852,0,0,0,.09.55,0.129,0.129,0,0,0,.13.11h0.03a0.136,0.136,0,0,0,.11-0.16,4.889,4.889,0,0,1-.09-0.53A0.129,0.129,0,0,0,1003.81,1766.91Zm-0.03-1.38h0.01a0.141,0.141,0,0,0,.14-0.13c0.01-.17.03-0.35,0.05-0.54a0.134,0.134,0,0,0-.11-0.15,0.138,0.138,0,0,0-.16.12c-0.02.18-.04,0.37-0.06,0.55A0.143,0.143,0,0,0,1003.78,1765.53Zm0.66-2.94a0.14,0.14,0,0,0-.18.08c-0.06.17-.12,0.35-0.18,0.53a0.144,0.144,0,0,0,.09.17h0.04a0.129,0.129,0,0,0,.13-0.09c0.06-.17.12-0.34,0.18-0.52A0.126,0.126,0,0,0,1004.44,1762.59Zm1.82-3.06a0.122,0.122,0,0,0,.09.04,0.161,0.161,0,0,0,.11-0.05c0.12-.13.24-0.26,0.37-0.39a0.141,0.141,0,0,0-.2-0.2c-0.13.13-.25,0.27-0.38,0.41A0.139,0.139,0,0,0,1006.26,1759.53Zm-1.07,8.93a0.037,0.037,0,0,0,.03-0.01,0.13,0.13,0,0,0,.1-0.16,4.507,4.507,0,0,1-.09-0.53,0.137,0.137,0,1,0-.27.04c0.02,0.19.06,0.37,0.09,0.55A0.15,0.15,0,0,0,1005.19,1768.46Z" transform="translate(-965.031 -1749.13)"/>
</svg>
