<svg xmlns="http://www.w3.org/2000/svg" width="43.032" height="34" viewBox="0 0 43.032 34">
  <defs>
    <style>
      .cls-1 {
        fill: #0d1227;
        fill-rule: evenodd;
      }
    </style>
  </defs>
  <path id="value-2.svg" class="cls-1" d="M971.1,1446.98h0c-0.011,0-.02.01-0.031,0.01l-0.662.67c0,0.01-.007.02-0.007,0.03v0.36l1.06-1.07H971.1Zm1.68,0h-0.385l-2,2.02v0.4Zm-0.077,1.42q0.014-.225.027-0.42l-2.335,2.37v0.39Zm-0.068,1.41c0-.14.01-0.27,0.016-0.41l-2.256,2.29v0.39Zm-0.023.98-2.217,2.24v0.39l2.213-2.24C972.605,1451.05,972.606,1450.92,972.608,1450.79Zm0,1.34-2.217,2.24v0.39l2.224-2.25C972.612,1452.38,972.61,1452.25,972.608,1452.13Zm0.04,1.3-2.257,2.28v0.39l2.276-2.3C972.66,1453.67,972.654,1453.55,972.648,1453.43Zm0.084,1.26-2.341,2.37v0.39l2.373-2.41C972.752,1454.92,972.742,1454.8,972.732,1454.69Zm0.128,1.21-2.469,2.5v0.39l2.519-2.55C972.893,1456.12,972.875,1456.01,972.86,1455.9Zm0.185,1.15-2.654,2.69v0.39l2.716-2.75C973.085,1457.27,973.065,1457.16,973.045,1457.05Zm0.241,1.1-2.895,2.93v0.39l2.978-3.02C973.341,1458.35,973.313,1458.25,973.286,1458.15Zm0.31,1.03-3.054,3.09a0.793,0.793,0,0,0,.2.18l2.957-2.99C973.668,1459.36,973.631,1459.27,973.6,1459.18Zm0.527,1.19c-0.045-.08-0.086-0.17-0.129-0.25l-2.4,2.43h0.385Zm0.368,0.58-1.577,1.6H973.3l1.359-1.38C974.6,1461.1,974.546,1461.03,974.491,1460.95Zm0.629,0.71-0.881.89h0.385l0.715-.72C975.265,1461.77,975.19,1461.72,975.12,1461.66Zm0.812,0.52-0.368.37h0.385l0.273-.28A2.788,2.788,0,0,1,975.932,1462.18Zm30.278-14.13,1.06-1.07h-0.37c-0.01,0-.02.01-0.03,0.01l-0.66.67v0.39Zm0,0.96v0.39l2.38-2.42h-0.38Zm0,1.34v0.39l2.3-2.34q0.015-.225.03-0.42Zm0,1.73,2.24-2.27c0-.14.01-0.27,0.01-0.41l-2.25,2.29v0.39Zm0,1.34,2.21-2.24v-0.39l-2.21,2.24v0.39Zm0,1.34,2.22-2.25c0-.13-0.01-0.26-0.01-0.38l-2.21,2.24v0.39Zm0,1.34,2.27-2.3c-0.01-.13-0.01-0.25-0.02-0.37l-2.25,2.28v0.39Zm0,1.35,2.37-2.41c-0.01-.12-0.02-0.24-0.03-0.35l-2.34,2.37v0.39Zm0,1.34,2.51-2.55c-0.01-.12-0.03-0.23-0.05-0.34l-2.46,2.5v0.39Zm0,1.34,2.71-2.75-0.06-.33-2.65,2.69v0.39Zm0,1.34,2.97-3.02c-0.02-.1-0.05-0.2-0.08-0.3l-2.89,2.93v0.39Zm0,0.98a0.943,0.943,0,0,0,.1.1h0.15l3.06-3.09c-0.04-.1-0.07-0.19-0.11-0.28l-3.2,3.24v0.03Zm1.58,0.1,2.15-2.18c-0.05-.08-0.09-0.17-0.13-0.25l-2.41,2.43h0.39Zm1.32,0,1.36-1.38c-0.05-.07-0.11-0.14-0.16-0.22l-1.58,1.6h0.38Zm1.33,0,0.71-.72c-0.07-.06-0.15-0.11-0.22-0.17l-0.88.89h0.39Zm1.31-.37-0.37.37h0.38l0.28-.28A2.457,2.457,0,0,1,1011.75,1462.18Zm0.73,0.6h0.04l0.04-.07c-0.01.01-.03,0.02-0.04,0.03Zm-32.59-24.16-0.948.96v0.39l1.252-1.27C980.088,1438.67,979.986,1438.64,979.89,1438.62Zm-0.934,2.67,2.161-2.18c-0.084-.05-0.167-0.1-0.25-0.14l-1.911,1.93v0.39Zm0,1.35,2.918-2.96-0.2-.18-2.714,2.75v0.39Zm0,1.34,3.525-3.57c-0.053-.08-0.109-0.15-0.164-0.23l-3.361,3.41v0.39Zm0,1.34,4.006-4.06c-0.047-.09-0.089-0.17-0.134-0.25l-3.872,3.92v0.39Zm-0.014,1.35,4.472-4.52c-0.043-.09-0.09-0.18-0.132-0.26l-4.34,4.39v0.39Zm0,1.35,4.933-5c-0.046-.08-0.091-0.17-0.135-0.25l-4.8,4.86v0.39Zm0,1.34,5.413-5.48c-0.049-.09-0.094-0.17-0.141-0.25l-5.272,5.34v0.39Zm0,1.34,5.917-5.99c-0.052-.08-0.1-0.16-0.147-0.24l-5.77,5.84v0.39Zm0,1.34,6.453-6.53c-0.055-.08-0.1-0.16-0.156-0.23l-6.3,6.37v0.39Zm0,1.34,7.024-7.11c-0.058-.07-0.11-0.15-0.166-0.22l-6.858,6.94v0.39Zm0.625,0.71,7.011-7.1c-0.062-.07-0.118-0.14-0.178-0.21l-7.124,7.22A0.714,0.714,0,0,0,979.567,1454.09Zm1.317,0.01,6.353-6.43c-0.067-.07-0.127-0.13-0.192-0.2l-6.546,6.63h0.385Zm1.325,0,5.739-5.81c-0.072-.06-0.139-0.12-0.209-0.18l-5.915,5.99h0.385Zm1.325,0,5.185-5.25c-0.078-.05-0.151-0.11-0.227-0.16l-5.343,5.41h0.385Zm1.325,0,4.7-4.76a2.807,2.807,0,0,1-.249-0.14l-4.837,4.9h0.385Zm1.325,0,4.3-4.35-0.275-.12-4.411,4.47h0.385Zm1.325,0,4-4.05c-0.1-.03-0.2-0.05-0.306-0.08l-4.08,4.13h0.385Zm1.325,0,3.827-3.87c-0.117-.01-0.229-0.03-0.343-0.05l-3.869,3.92h0.385Zm1.325,0,3.758-3.81c-0.124,0-.248,0-0.373-0.01l-3.77,3.82h0.385Zm1.325,0,3.735-3.78c-0.127,0-.254,0-0.381-0.01l-3.739,3.79h0.385Zm1.325,0,3.731-3.78h-0.385l-3.731,3.78h0.385Zm1.325,0,3.73-3.78h-0.383l-3.732,3.78h0.385Zm1.325,0,3.713-3.76c-0.124,0-.25-0.01-0.377-0.01l-3.721,3.77h0.385Zm1.325,0,3.656-3.7c-0.12-.01-0.24-0.02-0.36-0.02l-3.681,3.72h0.385Zm1.325,0,3.521-3.56c-0.11-.02-0.22-0.04-0.34-0.05l-3.566,3.61h0.385Zm1.325,0,3.256-3.3c-0.09-.03-0.19-0.06-0.29-0.09l-3.351,3.39h0.385Zm1.326,0,2.78-2.82c-0.07-.06-0.14-0.11-0.22-0.17l-2.95,2.99h0.39Zm3.08-1.78v-0.39l-2.14,2.17h0.38Zm0,0.95-0.82.83h0.15a0.69,0.69,0,0,0,.35-0.11l0.21-.21a0.053,0.053,0,0,1,.02-0.03l0.06-.15a0.966,0.966,0,0,0,.03-0.18v-0.15Zm8.02-6.74h-0.01l-3.37-.83h-1.59v-3.35a1.791,1.791,0,0,0-1.77-1.79h-0.83v-1.45a1.127,1.127,0,0,0-1.12-1.13H979.609a1.129,1.129,0,0,0-1.121,1.13v1.45H977.77a1.784,1.784,0,0,0-1.766,1.79v3.35h0l-1.644.01-3.323.82h-0.008a1.166,1.166,0,0,0-1.092,1.16v14.16a1.147,1.147,0,0,0,.492.93,1.129,1.129,0,0,0-.492.92v2.51a1.134,1.134,0,0,0,1.128,1.14h-0.057a0.245,0.245,0,0,0-.162.07,0.255,0.255,0,0,0-.065.17l0.065,4.15a0.23,0.23,0,0,0,.207.23h0.02a0.23,0.23,0,0,0,.223-0.19l0.751-3.97h1.715a0.226,0.226,0,0,0,.227-0.23,0.223,0.223,0,0,0-.225-0.22h1.99l0.044,2.83a0.232,0.232,0,0,0,.208.23h0.019a0.231,0.231,0,0,0,.224-0.19l0.544-2.87h29.727l0.55,2.87a0.225,0.225,0,0,0,.22.19h0.02a0.229,0.229,0,0,0,.21-0.23l0.04-2.83h1.56a0.222,0.222,0,0,0-.22.22,0.224,0.224,0,0,0,.22.23h1.72l0.75,3.97a0.225,0.225,0,0,0,.22.19h0.02a0.229,0.229,0,0,0,.21-0.23l0.06-4.15a0.224,0.224,0,0,0-.06-0.17,0.236,0.236,0,0,0-.16-0.07h-0.06a1.146,1.146,0,0,0,1.13-1.15v-2.49a1.145,1.145,0,0,0-.49-0.93h0a0.209,0.209,0,0,0,.06-0.04c0.01-.01.03-0.02,0.04-0.03a1.127,1.127,0,0,0,.39-0.86v-14.16A1.161,1.161,0,0,0,1011.86,1446.53Zm0.64,1.16v14.16a0.7,0.7,0,0,1-.69.7h-5.6v-14.89a0.688,0.688,0,0,1,.66-0.67c0.01,0,.02-0.01.03-0.01h4.9A0.7,0.7,0,0,1,1012.5,1447.69Zm0,16.02v2.49a0.691,0.691,0,0,1-.69.69H971.069a0.676,0.676,0,0,1-.678-0.68v-2.51a0.685,0.685,0,0,1,.678-0.69h40.741A0.694,0.694,0,0,1,1012.5,1463.71Zm-41.958-1.44a0.7,0.7,0,0,1-.151-0.42v-14.16c0-.01.006-0.02,0.007-0.03a0.687,0.687,0,0,1,.662-0.67c0.011,0,.02-0.01.031-0.01h4.893a0.707,0.707,0,0,1,.7.71v14.86h-5.6a0.641,0.641,0,0,1-.333-0.1A0.793,0.793,0,0,1,970.542,1462.27Zm35.208-4.07v1.49a1.941,1.941,0,0,1-1.84,1.9c-0.91.06-1.78,0.11-2.62,0.17-3.407.22-6.354,0.42-9.869,0.42h-0.01c-3.485,0-6.388-.19-9.748-0.42-0.846-.05-1.724-0.11-2.649-0.17a1.941,1.941,0,0,1-1.842-1.9v-1.49a1.93,1.93,0,0,1,1.863-1.9c4.422-.23,7.874-0.37,12.425-0.37s8.006,0.14,12.43.37A1.931,1.931,0,0,1,1005.75,1458.2Zm-28.611,2.81a2.425,2.425,0,0,0,1.846,1.04c0.926,0.06,1.8.12,2.648,0.17,1.983,0.13,3.808.25,5.687,0.33H977.139v-1.54Zm18.406,1.54c1.906-.08,3.763-0.2,5.775-0.33,0.84-.06,1.71-0.11,2.62-0.17a2.447,2.447,0,0,0,1.81-1v1.5H995.545Zm10.205-14.86v8.87l-1.54-2.36a0.22,0.22,0,0,0-.16-0.09,1.151,1.151,0,0,0,.24-0.69v-7.21l1.92,0.57A1.15,1.15,0,0,0,1005.75,1447.69Zm-1.92,6.77,1.09,1.66a2.411,2.411,0,0,0-1.01-.28c-4.428-.23-7.886-0.37-12.45-0.37s-8.018.14-12.45,0.37a2.474,2.474,0,0,0-1.116.34l1.192-1.77a1.05,1.05,0,0,0,.523.15h23.561a1.123,1.123,0,0,0,.64-0.22A0.172,0.172,0,0,0,1003.83,1454.46Zm-25.091-.35-1.6,2.38v-8.8a1.143,1.143,0,0,0-.459-0.91l1.808-.54v7.18A1.11,1.11,0,0,0,978.739,1454.11Zm29.681-7.96,1.33,0.33c-1.52-.02-2.5-0.01-2.83.03l-1.19-.35Zm-4.03-5.12h0.73a1.317,1.317,0,0,1,1.31,1.32v3.35h-2.04v-4.67Zm-24.781-2.59h23.561a0.67,0.67,0,0,1,.67.67v14.31a0.966,0.966,0,0,1-.03.18l-0.06.15a0.053,0.053,0,0,0-.02.03,0.7,0.7,0,0,1-.21.21,0.69,0.69,0,0,1-.35.11H979.609c-0.015,0-.027-0.01-0.042-0.01a0.714,0.714,0,0,1-.291-0.09,0.68,0.68,0,0,1-.334-0.58v-7.39a0.2,0.2,0,0,0,.014-0.03v-5.2a0.114,0.114,0,0,0-.014-0.04v-1.65A0.7,0.7,0,0,1,979.609,1438.44Zm-3.151,3.91a1.316,1.316,0,0,1,1.312-1.32h0.718v4.67h-2.03v-3.35Zm-2.045,3.81h2.738l-1.183.35c-0.221-.02-0.748-0.04-1.54-0.04-0.376,0-.813,0-1.3.01Z" transform="translate(-969.938 -1437.97)"/>
</svg>
