<svg xmlns="http://www.w3.org/2000/svg" width="67.97" height="37" viewBox="0 0 67.97 37">
  <defs>
    <style>
      .cls-1 {
        fill: #0d1227;
        fill-rule: evenodd;
      }
    </style>
  </defs>
  <path id="value-6.svg" class="cls-1" d="M1412.46,1774.65l-0.2-.04-0.65.79v0.28Zm0.72,0.15-0.19-.04-1.38,1.65v0.28Zm0.73,0.14-0.2-.04-2.1,2.53v0.28Zm0.73,0.15-0.2-.04-2.83,3.4v0.28Zm0.72,0.15-0.19-.04-3.56,4.26v0.28Zm0.86-.01a1.468,1.468,0,0,1-.09-0.17l-0.07.08v0.23l-0.17-.03-4.28,5.14v0.28Zm0.34,0.6c-0.03-.06-0.06-0.11-0.09-0.16l-4.86,5.83v0.28Zm0.37,0.58c-0.04-.05-0.07-0.1-0.11-0.15l-5.21,6.26v0.27Zm0.37,0.57c-0.03-.05-0.07-0.1-0.1-0.15l-5.59,6.7v0.28Zm0.39,0.55c-0.04-.05-0.07-0.1-0.11-0.15l-5.97,7.17v0.28Zm0.41,0.53a1.741,1.741,0,0,0-.12-0.14l-5.82,6.99,0.25-.02Zm0.42,0.51a1.741,1.741,0,0,1-.12-0.14l-5.61,6.74v0.27Zm-5.72,7.88,1.91-2.29v-0.28l-1.91,2.29v0.28Zm6.15-7.38c-0.04-.05-0.08-0.09-0.12-0.14l-4.06,4.88,0.27-.05Zm0.46,0.47a1.593,1.593,0,0,1-.13-0.13l-3.52,4.22,0.27-.04Zm-6.08,7.28,1.38-1.65v-0.28l-1.66,1.99Zm1.03-.21,0.35-.42v-0.28l-0.63.76Zm5.52-6.62c-0.04-.04-0.09-0.08-0.13-0.12l-3,3.59,0.28-.05Zm0.5,0.42c-0.05-.04-0.1-0.08-0.14-0.11l-2.49,2.98,0.27-.05Zm0.52,0.39c-0.05-.03-0.1-0.07-0.15-0.1l-2.01,2.41,0.28-.05Zm0.55,0.36a1.4,1.4,0,0,1-.16-0.1l-1.55,1.87,0.27-.05Zm0.58,0.32c-0.05-.03-0.11-0.06-0.16-0.09l-1.14,1.37,0.27-.05Zm0.63,0.26a1.336,1.336,0,0,1-.18-0.07l-0.75.91,0.27-.05Zm0.33,0.62,0.35-.42c-0.07-.01-0.13-0.03-0.2-0.04l-0.42.5Zm1-.18,0.09-.11-0.21-.03-0.16.19Zm-32.22-9.31-0.25.51,0.39-.47Zm0.67,0.15-0.94,1.12,0.03,0.25,1.1-1.33Zm0.71,0.15-1.55,1.86,0.03,0.25,1.72-2.06Zm0.72,0.16-2.16,2.6,0.02,0.24,2.34-2.8Zm0.72,0.16-2.78,3.33,0.03,0.25,2.95-3.54Zm0.72,0.15-3.4,4.07,0.03,0.25,3.56-4.27Zm0.71,0.16-4,4.81,0.02,0.24,4.18-5.01Zm0.72,0.15-4.62,5.55,0.03,0.25,4.79-5.75Zm0.72,0.16-4.94,5.93,0.19,0.05,4.95-5.94Zm0.72,0.16-4.97,5.96,0.19,0.05,4.97-5.97Zm0.72,0.15-5,6,0.19,0.05,5-6Zm0.71,0.16-5.02,6.02,0.19,0.05,5.03-6.03Zm0.72,0.15-5.05,6.06,0.19,0.05,5.06-6.06Zm0.72,0.16-5.07,6.09,0.19,0.05,5.08-6.1Zm0.72,0.16-5.1,6.11,0.19,0.05,5.1-6.12Zm0.71,0.15-5.12,6.15,0.19,0.05,5.13-6.16Zm0.72,0.16-5.15,6.18,0.19,0.05,5.16-6.19Zm0.72,0.15-5.18,6.21,0.19,0.06,5.19-6.22Zm0.72,0.16-5.21,6.24,0.19,0.05,5.21-6.25Zm0.72,0.16-5.23,6.27,0.19,0.05,5.23-6.28Zm0.71,0.15-5.25,6.31,0.19,0.05,5.26-6.32Zm0.72,0.16-5.28,6.33,0.19,0.05,5.29-6.34Zm0.72,0.15-5.31,6.37,0.19,0.05,5.32-6.37Zm0.77,0.17-0.05-.01-5.34,6.4,0.19,0.05,5.24-6.28Zm0.19,0.72-4.88,5.85,0.19,0.05,4.74-5.69Zm0.2,0.77-4.39,5.27,0.19,0.05,4.26-5.11Zm0.21,0.77-3.91,4.69,0.19,0.05,3.77-4.53Zm0.2,0.77-3.42,4.1,0.19,0.06,3.29-3.95Zm0.21,0.77-2.94,3.52,0.19,0.05,2.8-3.36Zm0.2,0.78-2.44,2.93,0.19,0.05,2.31-2.77Zm0.21,0.77-1.96,2.35,0.19,0.05,1.82-2.19Zm0.2,0.77-1.47,1.76,0.19,0.05,1.34-1.6Zm0.2,0.77-0.98,1.18,0.19,0.05,0.85-1.02Zm0.21,0.77-0.36.44,0.38-.18,0.04-.05Zm24.66-16.49a0.114,0.114,0,0,0-.03-0.08,0.147,0.147,0,0,0-.04-0.02,0.219,0.219,0,0,0-.05-0.03l-3.68-.53a0.045,0.045,0,0,0-.05,0l-0.76.12-16.36-2.55a0.18,0.18,0,0,0-.12.03,0.166,0.166,0,0,0-.05.12v0.53l-0.69.05v-5.42l9.69,0.22v0.26a0.142,0.142,0,0,0,.15.15h4.15a0.147,0.147,0,0,0,.15-0.15v-5.94a0.154,0.154,0,0,0-.15-0.15h-3.74a0.147,0.147,0,0,0-.15.15v0.31l-5.58-.13a0.076,0.076,0,0,0-.01-0.04l-0.67-1.59a0.157,0.157,0,0,0-.14-0.09h-1.33l-2.45-.45a0.13,0.13,0,0,0,.08-0.12v-2.02a0.154,0.154,0,0,0-.15-0.15h-1.37l-1.1-.15a0.192,0.192,0,0,0-.12.04,0.161,0.161,0,0,0-.05.11v0.49l-5.34.32c-0.02.01-.03,0.02-0.05,0.03s-0.02,0-.03.01a0.01,0.01,0,0,1-.01.01,0.114,0.114,0,0,0-.03.08,0.038,0.038,0,0,0-.02.02v1.3a0.14,0.14,0,0,0,.12.14l1.6,0.33v2.49h-2.24a0.145,0.145,0,0,0-.07.02l-0.42.24-1.23-3.36a0.135,0.135,0,0,0-.17-0.09l-1.02.23c-0.01,0-.01.01-0.02,0.01h-0.01a0.265,0.265,0,0,0-.06.05l-1.47,1.87a0.144,0.144,0,0,0-.02.14l2.93,7.02a0.756,0.756,0,0,0-.3.07,2.379,2.379,0,0,0-1.05,1.46l-0.37.04a0.13,0.13,0,0,0-.13.12l-0.23,1.5-0.22.14a0.133,0.133,0,0,0-.06.1,0.147,0.147,0,0,0,.02.11l0.07,0.1a1.414,1.414,0,0,0-.16.96,0.917,0.917,0,0,0,.09.23l-0.95-.7a0.193,0.193,0,0,0-.1-0.03l-3.76.3-5.51-1-5.86.26a0.145,0.145,0,0,0-.14.15v0.13h-0.33a0.161,0.161,0,0,0-.11.05,0.15,0.15,0,0,0-.04.11l0.04,0.78-0.12.14a0.114,0.114,0,0,0-.03.08l-0.03.35-14.18,1.34a0.143,0.143,0,0,0-.13.15v0.35l-0.02-.01-2.05.06v0.01a0.114,0.114,0,0,0-.08.03c-0.01,0-.01,0-0.01.01a0.127,0.127,0,0,0-.04.09l-0.01.01v1.02a0.16,0.16,0,0,0,.11.14l1.27,0.31a0.076,0.076,0,0,0,.04.01h0.01l2.68-.16a0.143,0.143,0,0,0,.14-0.14v-0.15l2.99-.23v0.75a0.147,0.147,0,0,0,.15.15h0.8l2.37,0.54v8.76a0.154,0.154,0,0,0,.15.15h0.6a0.06,0.06,0,0,0,.04-0.01l0.74-.18v0.41a0.154,0.154,0,0,0,.15.15h0.89l10.34-1.26a0.16,0.16,0,0,0,.13-0.15v-0.41l0.44-.22a0.134,0.134,0,0,0,.08-0.13v-4.26h0.19l0.51,5.85a0.138,0.138,0,0,0,.1.13l1.52,0.5v0.97a0.147,0.147,0,0,0,.11.14l2.84,0.85h0.02a0.035,0.035,0,0,0,.02.01,0.227,0.227,0,0,1,.04-0.01l2.26-.5,7.58,1.99v1.15a0.147,0.147,0,0,0,.11.14l6.35,1.7a0.076,0.076,0,0,0,.04.01h0a0.037,0.037,0,0,0,.03-0.01l1.91-.37a0.14,0.14,0,0,0,.12-0.14v-2.5l6.3-.96,4.21,0.97a0.06,0.06,0,0,0,.04.01v-0.01a0.01,0.01,0,0,1,.01.01l1.72-.19a0.152,0.152,0,0,0,.14-0.15v-9.31h1.69a0.143,0.143,0,0,0,.15-0.13,0.15,0.15,0,0,0-.12-0.16l-2.65-.54v-1.19c0-.01-0.01-0.02-0.01-0.03a0.085,0.085,0,0,0-.03-0.06c0-.01,0-0.02-0.01-0.02a0.037,0.037,0,0,0-.03-0.01l-0.03-.03-1.56-.33v-0.98l1.01-.11a0.151,0.151,0,0,0,.11.12l1.97,0.41h0.04l2.56-.2a0.152,0.152,0,0,0,.14-0.15v-0.73l4.33-.4a0.152,0.152,0,0,0,.14-0.15v-1.98C1434.98,1767.64,1434.97,1767.64,1434.97,1767.63Zm-3.82-.37,2.42,0.36-3.06.27v-0.52Zm-2.97.13c-0.01,0-.01-0.01-0.02-0.01a0.106,0.106,0,0,0-.05.02l-0.37.05v-0.47l1.6,0.25Zm-0.4.89c-0.01,0-.03.02-0.04,0.02v-0.55l0.27-.04v0.55Zm0.53-.61,1.9-.26v0.61l-1.9.2v-0.55Zm-14.18-2.81,13.31,2.08v1.39l-13.31-2.14v-1.33Zm-1.29.44-1.08.09v-11.5l1.11,0.22a0.212,0.212,0,0,0-.03.07v0.28l-0.86-.02a0.177,0.177,0,0,0-.15.15v5.08a0.154,0.154,0,0,0,.15.15l0.86,0.02v5.46Zm-9.02-1.57,2.11,0.34h0.01l1.94,0.22,0.42,1.35-0.59.07a2.528,2.528,0,0,0-2.27-1.45h-0.04a2.72,2.72,0,0,0-2.35,1.81l-1.23.11,0.06-.79,0.48-1.75Zm1.99-2.17c0.31,0.16,2.54,1.3,2.84,2.44h-0.55a5.389,5.389,0,0,0-2.56-2.42Zm3.79,4.55h-0.84l-0.56-1.81h0.69l0.34,0.27Zm-1.85-2.14-1.69-.18-0.79-2.01A5.391,5.391,0,0,1,1407.75,1763.97Zm-4.58,2.39a0.17,0.17,0,0,0,.13-0.1,2.473,2.473,0,0,1,2.1-1.7h0.04a2.216,2.216,0,0,1,2.04,1.36l0.01,0.01v0.01a7.922,7.922,0,0,1,.59,1.49l-5.31-1.04Zm5.24,1.14a8.618,8.618,0,0,0-.56-1.51l0.54-.06,0.11,0.36,0.25,1.27Zm0.42-1.09h0.87c0.59,0.95.22,1.41,0.11,1.52h-0.69Zm0.68-1.96a0.218,0.218,0,0,0-.05-0.08l-0.5-.4c-0.3-1.28-2.61-2.47-3.01-2.67l-1.12-3.06c0.01-.01.03,0,0.04-0.01l1.74-1.34,3.61-.19v8.81l-0.45.04Zm-1.09-11.24v1.97l-0.96.08v-2.25Zm3.04,1.73-2.74.22v-1.89l2.74,0.56v1.11Zm0,0.29v1.11l-4.75.24v-0.96Zm-5.05,1.44-1.57,1.2-0.31-.78,1.88-1.32v0.9Zm4.11,0.02,0.94-.05v8.77l-0.94.08v-8.8Zm12.08,3.08-9.55-.22a0.169,0.169,0,0,0-.06-0.03,0.085,0.085,0,0,0-.05.03l-0.81-.02v-4.79l10.47,0.26v4.77Zm-9.46-5.3v-0.29l-0.01-.01,1.7,0.34Zm10.25,0.53a0.154,0.154,0,0,0,.15-0.15v-0.31h3.44v5.65h-3.86v-0.26a0.145,0.145,0,0,0-.14-0.15h-0.08V1755h0.49Zm-6.1-.56h-1.2l-0.39-1.29h1.04Zm-4.42-2.07-1.11-.21v-1.75h1.08v1.87A0.239,0.239,0,0,0,1412.87,1752.37Zm-2.36-1.48a0.152,0.152,0,0,0,.14-0.15v-0.46l0.81,0.11v1.72l-5.21-.96Zm-5.34.36,10.21,1.88,0.39,1.27-10.6-2.15v-1Zm1.72,1.65,0.27,0.05v2.33l-0.27.03v-2.41Zm-2.5,2.73h1.7l-1.68,1.18-0.38-.97Zm-1.99-3.17,3.23,8.82-0.53.05-3.43-8.71Zm-0.97.35,4.29,10.93-1.77-.29-3.78-9.04Zm-0.61,12.36a0.122,0.122,0,0,0,0-.16l-0.04-.05,0.15-.09a0.21,0.21,0,0,0,.07-0.11l0.22-1.45,0.34-.04a0.138,0.138,0,0,0,.13-0.1,2.123,2.123,0,0,1,.91-1.36,0.521,0.521,0,0,1,.31-0.06l0.7,1.67-1.36-.09a0.159,0.159,0,0,0-.15.11l-0.52,1.9-0.06.91-0.51.21a0.726,0.726,0,0,1-.36-0.46A1.259,1.259,0,0,1,1400.82,1765.17Zm10.64,19.54h-0.97l-1.76-8.11,2.54-1.47a0.149,0.149,0,0,0,.07-0.15,0.138,0.138,0,0,0-.11-0.12l-18.82-4.01h0.28l18.77,3.75v10.11Zm-2.93-8.35-16.98-3.68,0.77-1.55,18.47,3.94Zm-16.38-5.51a0.236,0.236,0,0,0-.05.05l-0.85,1.71-1.05-.26,0.67-1.41,0.9-.09h0.38Zm-12.77,5.97,0.57,0.1v0.58h-0.41c-0.02,0-.04.01-0.06,0.01l-0.1.04v-0.73Zm0.19,0.98h0.38v1.59l-0.57.14v-1.66Zm0.52-1.16-0.24-.04,10.34-3.38,0.34,0.05Zm10.11-3.72a0.085,0.085,0,0,0-.07,0l-10.95,3.58-0.03.03c-0.01.01-.02,0.01-0.03,0.02a0.212,0.212,0,0,0-.03.07,0.035,0.035,0,0,1-.01.02v1.04l-0.63.25v-6.54l2.25,0.53a0.037,0.037,0,0,0,.03.01h0.02l9.77-.96-0.67,1.41a0.285,0.285,0,0,0,0,.13,0.159,0.159,0,0,0,.1.08l1.25,0.31,0.01,0.19Zm-2.36-6.32,2-.13v1.59l-2,.15v-1.61Zm8.29,1.25,4.11,0.82-7.63.74-4.47-.92,1.86-.15h0Zm18.39,4.42-13.12-2.61v-0.76l13.12,2.55v0.82Zm-35.8-2.18,0.94-.09,2.21,0.45-1.13.11Zm4.17,0.26-2.16-.43,6.31-.53,1.82,0.38Zm6.96-.67-2.62-.55v-0.53l4.38,0.91Zm-2.92-.58-7.11.59v-0.42l2.48-.23,4.63-.46v0.52Zm-7.41.62-1.73.16-1.29-.3,3.02-.28v0.42Zm-3.96-.05,3.96,0.91v0.1l-4.15-1Zm16.18,0.89h-0.93a0.134,0.134,0,0,0-.13.08l-0.01.02-9.93.97-0.92-.22v-0.76l0.88,0.2a0.085,0.085,0,0,0,.05,0l20.35-1.96v0.76Zm9.5-.63,13.28,2.64v0.81l-16.16-3.17Zm13.44,1.24-13.4-2.59-4.08-.82,3.16-.26,16.83,3.36Zm3.44-.43-17.6-3.51v-0.22l19.2,3.53Zm-17.9-4.24v0.72l-10.08.82v-1.58l5.5-.3h0.01l3.71-.3Zm-15.79-1.09,5.68-.26,4.26,0.78-4.39.24h0l-2.28.15-3.27-.88v-0.03Zm-0.17.29,3.28,0.88v0.16l-1.2.06-2.35-.52-0.03-.58h0.3Zm-0.43.94,0.07-.08,1.27,0.28-1.36.05Zm-14.33,2.46h-1.07l-0.16-.04,0.89-.02Zm-2.21.04,0.97,0.23v0.72l-0.97-.24v-0.71Zm1.27,0.98v-0.72h2.38v0.33a0.128,0.128,0,0,0,0,.25v0.01Zm2.66-.91a0.048,0.048,0,0,0-.02-0.05,0.1,0.1,0,0,0-.04-0.03c-0.02-.01-0.02-0.02-0.04-0.03l-1.62-.3v-0.27l14.15-1.33,2.68-.1h0l1.21-.07v1.2l-0.47.04-4.8.47-6.71.63h0l-1.19.08h-0.01l-3.12.24v-0.44A0.052,0.052,0,0,0,1371.22,1769.21Zm3.31,1.14v-0.57l4.99,1.21v0.35l-1.18-.28h-0.01l-0.59-.13h0l-2.52-.58h-0.69Zm3.32,0.91,0.3,0.07v8.47h-0.3v-8.54Zm0.6,8.5v-1.51l0.63-.25v1.6Zm0.93,0.07,0.57-.14v0.48h-0.57v-0.34Zm11.43-1.62-0.44.21a0.16,0.16,0,0,0-.08.14v0.37l-10.04,1.22v-3.25l10.03-3.23,0.03,0.24a0.151,0.151,0,0,0,.15.13h0.35v4.17Zm0.15-4.47h-0.37l-0.01-.17,0.4-.13a0.16,0.16,0,0,0,.09-0.07l0.17,0.03,0.03,0.34h-0.31Zm2.77,7.64v-0.77l2.54,0.73v0.8Zm2.84,0.77v-0.73l1.52,0.4Zm-0.11-1.07h0l-2.83-.81-1.53-.5-0.6-6.8,16.93,3.68,1.74,8-3.69-.94h0Zm10.13,2.97,3.74,0.95h2.31l0.01,1.63-6.06-1.63v-0.95Zm18.67-.42-3.31-.76,3.31-.51v1.27Zm1.72-.13-1.42.15v-1.46a0.125,0.125,0,0,0-.06-0.11,0.159,0.159,0,0,0-.12-0.04l-10.69,1.63a0.15,0.15,0,0,0-.13.15v2.51l-1.61.31-0.02-1.78a0.142,0.142,0,0,0-.15-0.15h-1.02v-10.05l4.27,0.86a0.131,0.131,0,0,0,.12-0.03,0.143,0.143,0,0,0,.06-0.12v-2.52l2.94-.38v0.77a0.161,0.161,0,0,0,.05.11,0.131,0.131,0,0,0,.12.03l6.73-.91V1774a0.16,0.16,0,0,0,.13.15l0.8,0.15v9.2Zm-1.63-11.23-5.9.8v-0.64l4.3-.51Zm2.16,1.76h-0.37l-0.79-.15v-0.09Zm-3.72-2.4a0.045,0.045,0,0,0-.05,0l-4.46.52h0l-3.24.42a0.143,0.143,0,0,0-.13.15v2.47l-22.51-4.5,3.96-.38a0.035,0.035,0,0,1,.02.01l17.26,3.38a0.037,0.037,0,0,0,.03.01,0.178,0.178,0,0,0,.1-0.04,0.161,0.161,0,0,0,.05-0.11v-1.49l4.5-.6,5.06-.6v0.89Zm3.32-1.35-2.59.28h0l-5.24.62-4.46.59v-0.32l5.89-.74a0.147,0.147,0,0,0,.01-0.29l-20.2-3.71v-0.29a0.169,0.169,0,0,0-.03-0.06,1.283,1.283,0,0,0,.43.4,0.235,0.235,0,0,0,.08.02,0.127,0.127,0,0,0,.06-0.01l0.64-.28h0.02l7.09,1.39,0.04,0.22a0.159,0.159,0,0,0,.15.12h0.86a0.292,0.292,0,0,0,.09-0.02c0.01-.01.86-0.63-0.02-2l-0.09-.36,3.99-.33v0.81a0.141,0.141,0,0,0,.13.14l13.69,2.21v2.26l-1.3-.27,0.79-.08a0.172,0.172,0,0,0,.14-0.17A0.15,0.15,0,0,0,1427.11,1770.28Zm0.84,0.67v-2.39l2.26-.24v2.45Zm2.56-1.06v-1.7l4.17-.38v1.69Z" transform="translate(-1367 -1749.97)"/>
</svg>
