<svg xmlns="http://www.w3.org/2000/svg" width="48.97" height="31" viewBox="0 0 48.97 31">
  <defs>
    <style>
      .cls-1 {
        fill: #0d1227;
        fill-rule: evenodd;
      }
    </style>
  </defs>
  <path id="value-3.svg" class="cls-1" d="M1402.83,1471c0.1-.05.2-0.1,0.29-0.15l-0.07-.07Zm-0.27-.74-1.1,1.1a3.859,3.859,0,0,0,.49-0.06l0.82-.82Zm-0.5-.52-1.55,1.55c0.13,0.02.26,0.04,0.38,0.05l1.38-1.38Zm-2.03,1.44,1.55-1.55a1.245,1.245,0,0,1-.52.09l-1.36,1.36C1399.81,1471.12,1399.92,1471.15,1400.03,1471.18Zm-0.77-.25,1.24-1.24c-0.11-.02-0.23-0.04-0.36-0.07l-1.19,1.2C1399.06,1470.86,1399.16,1470.9,1399.26,1470.93Zm-0.72-.29,1.13-1.14c-0.1-.03-0.21-0.07-0.32-0.1l-1.11,1.1C1398.34,1470.55,1398.44,1470.6,1398.54,1470.64Zm-0.69-.33,1.07-1.07c-0.1-.04-0.2-0.08-0.31-0.12l-1.04,1.04C1397.66,1470.21,1397.76,1470.26,1397.85,1470.31Zm-0.78-.42a0.673,0.673,0,0,0,.11.07l1.02-1.02c-0.09-.05-0.19-0.09-0.29-0.14l-1,1A1.29,1.29,0,0,0,1397.07,1469.89Zm-0.52-.32,0.97-.97c-0.09-.05-0.18-0.1-0.28-0.15l-0.95.96C1396.38,1469.47,1396.46,1469.51,1396.55,1469.57Zm-0.6-.41,0.92-.92c-0.09-.06-0.18-0.11-0.27-0.16l-0.9.9C1395.78,1469.04,1395.86,1469.1,1395.95,1469.16Zm-0.59-.43,0.88-.88c-0.08-.06-0.17-0.12-0.25-0.18l-0.87.87C1395.2,1468.6,1395.28,1468.67,1395.36,1468.73Zm-0.57-.45,0.85-.85c-0.08-.06-0.16-0.13-0.24-0.19l-0.85.86C1394.63,1468.16,1394.7,1468.22,1394.79,1468.28Zm-0.57-.45,0.85-.84c-0.09-.07-0.16-0.12-0.25-0.19l-0.83.84C1394.07,1467.7,1394.14,1467.77,1394.22,1467.83Zm-0.55-.46,0.84-.84c-0.08-.07-0.16-0.13-0.24-0.2l-0.84.85C1393.51,1467.24,1393.59,1467.3,1393.67,1467.37Zm-0.55-.47,0.83-.84c-0.07-.06-0.15-0.13-0.22-0.2l-0.84.84A2.2,2.2,0,0,0,1393.12,1466.9Zm-0.55-.47,0.85-.85-0.23-.2-0.85.85Zm-0.54-.48,0.85-.85c-0.07-.07-0.14-0.14-0.22-0.21l-0.86.86C1391.88,1465.82,1391.95,1465.89,1392.03,1465.95Zm-0.54-.48,0.87-.87c-0.07-.07-0.15-0.13-0.22-0.2l-0.88.87Zm-0.53-.48,0.88-.88c-0.07-.07-0.15-0.14-0.22-0.21l-0.89.89C1390.81,1464.85,1390.88,1464.92,1390.96,1464.99Zm-0.53-.49,0.89-.89c-0.07-.08-0.14-0.15-0.21-0.22l-0.91.91C1390.28,1464.37,1390.35,1464.44,1390.43,1464.5Zm-0.53-.49,0.91-.91-0.21-.21-0.93.92C1389.75,1463.88,1389.82,1463.95,1389.9,1464.01Zm-0.53-.49,0.93-.93c-0.07-.07-0.14-0.14-0.21-0.22l-0.94.95C1389.22,1463.39,1389.3,1463.45,1389.37,1463.52Zm-0.52-.49,0.95-.95c-0.07-.07-0.14-0.15-0.21-0.22l-0.96.96C1388.7,1462.89,1388.77,1462.96,1388.85,1463.03Zm-0.53-.5,0.98-.97a2.183,2.183,0,0,1-.21-0.22l-0.99.99C1388.18,1462.39,1388.25,1462.47,1388.32,1462.53Zm-0.52-.49,1-1a2.183,2.183,0,0,1-.21-0.22l-1.01,1.01C1387.66,1461.9,1387.73,1461.97,1387.8,1462.04Zm-0.52-.5,1.02-1.02c-0.07-.07-0.14-0.15-0.21-0.22l-1.02,1.03Zm-0.51-.5,1.04-1.04c-0.08-.08-0.14-0.15-0.21-0.22l-1.05,1.05C1386.62,1460.9,1386.69,1460.97,1386.77,1461.04Zm-0.52-.5,1.06-1.07c-0.06-.07-0.14-0.15-0.2-0.22l-1.07,1.07C1386.11,1460.39,1386.18,1460.46,1386.25,1460.54Zm-0.51-.51,1.08-1.08-0.2-.23-1.1,1.1C1385.59,1459.89,1385.67,1459.96,1385.74,1460.03Zm-0.51-.5,1.11-1.11c-0.08-.08-0.14-0.15-0.21-0.23l-1.12,1.12Zm-0.51-.51,1.13-1.14c-0.07-.07-0.14-0.15-0.2-0.22l-1.15,1.14A2.282,2.282,0,0,0,1384.72,1459.02Zm-0.51-.51,1.16-1.16c-0.07-.08-0.14-0.15-0.21-0.23l-1.17,1.17C1384.05,1458.36,1384.12,1458.42,1384.21,1458.51Zm-0.16-.86,0.83-.84c-0.07-.08-0.14-0.16-0.2-0.22l-0.46.46C1384.17,1457.24,1384.11,1457.45,1384.05,1457.65Zm40.1,4.92,0.28-.28v-0.43l-0.71.71h0.43Zm-1.02,0,1.3-1.3v-0.43l-1.72,1.73h0.42Zm-1.44,0h0.43l2.31-2.32v-0.43Zm-1.02,0h0.43l3.33-3.33v-0.43Zm-1.02,0h0.43l4.35-4.35v-0.43Zm-1.01,0h0.42l5.37-5.37v-0.43Zm5.79-6.82-0.48.48a6.427,6.427,0,0,1-.65,1.08l1.13-1.13v-0.43Zm-6.35,6.36c0.03,0.11.06,0.22,0.1,0.33l4.02-4.03a3.2,3.2,0,0,1-.91.48Zm-0.23-.78,0.09,0.33,2.59-2.59a3.671,3.671,0,0,1-.46.03Zm6.58-6.17v-0.04a0.637,0.637,0,0,1-.02.07Zm-6.81,5.38,0.09,0.33,1.81-1.8c-0.13-.02-0.25-0.04-0.37-0.06Zm-0.14-.46,1.2-1.19c-0.11-.04-0.22-0.07-0.33-0.11l-0.96.97Zm-0.22-.79,0.68-.68a2.751,2.751,0,0,1-.3-0.14l-0.48.49C1417.19,1459.06,1417.23,1459.18,1417.26,1459.29Zm-0.22-.8,0.22-.22c-0.1-.06-0.19-0.11-0.27-0.16l-0.05.05C1416.97,1458.27,1417,1458.38,1417.04,1458.49Zm-34.64,2.08,0.39-.39c0.06-.21.12-0.41,0.18-0.61l-1,1h0.43Zm-1.02,0,1.84-1.84c0.06-.2.11-0.4,0.17-0.6l-2.44,2.44h0.43Zm2.41-3.86-3.85,3.86h0.43l3.25-3.26C1383.68,1457.11,1383.74,1456.9,1383.79,1456.71Zm0.39-1.41-5.26,5.27h0.43l4.67-4.67C1384.07,1455.7,1384.13,1455.5,1384.18,1455.3Zm-1.68.67-4.6,4.6h0.43l4.86-4.87A4.66,4.66,0,0,1,1382.5,1455.97Zm-1.13.11-4.48,4.49h0.42l4.49-4.49A3.084,3.084,0,0,1,1381.37,1456.08Zm-0.83-.18-4.08,4.08v0.43l4.4-4.41A2.992,2.992,0,0,1,1380.54,1455.9Zm-0.68-.34-3.4,3.4v0.43l3.67-3.68C1380.04,1455.67,1379.95,1455.61,1379.86,1455.56Zm-0.58-.44-2.82,2.82v0.43l3.05-3.06A2.11,2.11,0,0,1,1379.28,1455.12Zm-0.5-.52-2.32,2.32v0.43l2.52-2.52A2.2,2.2,0,0,1,1378.78,1454.6Zm-0.45-.57-1.87,1.88v0.42l2.05-2.05C1378.45,1454.2,1378.39,1454.12,1378.33,1454.03Zm-0.4-.61-1.47,1.47v0.43l1.63-1.64C1378.04,1453.59,1377.98,1453.51,1377.93,1453.42Zm-0.36-.66-1.11,1.11v0.43l1.25-1.26C1377.66,1452.95,1377.61,1452.85,1377.57,1452.76Zm-0.33-.69-0.78.78v0.43l0.91-.91C1377.33,1452.27,1377.28,1452.17,1377.24,1452.07Zm-0.3-.72-0.48.48v0.43l0.6-.6C1377.02,1451.56,1376.97,1451.45,1376.94,1451.35Zm-0.28-.74-0.2.2v0.43l0.32-.31C1376.74,1450.82,1376.7,1450.71,1376.66,1450.61Zm-0.2-.38,0.06-.07c-0.02-.06-0.04-0.13-0.06-0.19v0.26Zm48.21-7.34c-0.35.02-8.49,0.58-10.89,2.61a0.262,0.262,0,0,0-.09.22c0,0.01.05,0.53,0.23,1.59a34.912,34.912,0,0,1-7.32-2.85,8.7,8.7,0,0,0-9.46,1.16,0.24,0.24,0,0,0-.2-0.12h-10c0.2-1.18.26-1.77,0.26-1.79a0.243,0.243,0,0,0-.09-0.21c-2.4-2.04-10.54-2.59-10.89-2.61a0.27,0.27,0,0,0-.19.06,0.273,0.273,0,0,0-.08.19v19.68a0.256,0.256,0,0,0,.26.25h6.65a0.246,0.246,0,0,0,.24-0.18c0.23-.74.44-1.45,0.64-2.14,1.63,1.66,9.63,9.64,13.08,11.58a9.536,9.536,0,0,0,4.5,1.53,4.1,4.1,0,0,0,2.21-.66,3.227,3.227,0,0,0,2.41.23,3.59,3.59,0,0,0,2.04-2.23,3.521,3.521,0,0,0,4.34-2.17,3.887,3.887,0,0,0,2.97-1.24,3.049,3.049,0,0,0,.18-2.84l2.02-1.06c0.1,0.34.19,0.66,0.3,1.01a0.258,0.258,0,0,0,.24.18h6.66a0.263,0.263,0,0,0,.25-0.26v-19.68a0.25,0.25,0,0,0-.08-0.18A0.264,0.264,0,0,0,1424.67,1442.89Zm-0.24.53v19.15h-6.22c-0.01-.04-0.02-0.08-0.03-0.13-0.04-.11-0.07-0.22-0.1-0.33-0.05-.15-0.09-0.3-0.14-0.45l-0.09-.33c-0.05-.15-0.09-0.31-0.14-0.46l-0.09-.33c-0.05-.16-0.09-0.3-0.14-0.46l-0.09-.33c-0.04-.16-0.09-0.31-0.13-0.46-0.03-.11-0.07-0.23-0.1-0.33-0.04-.16-0.08-0.31-0.12-0.47-0.04-.11-0.07-0.22-0.1-0.33-0.01-.03-0.01-0.07-0.02-0.1-1.36-4.92-2.06-8.28-2.4-10.24a0.214,0.214,0,0,0,.08-0.17,0.217,0.217,0,0,0-.15-0.22c-0.14-.86-0.21-1.4-0.24-1.63C1416.37,1444.14,1423.01,1443.53,1424.43,1443.42Zm-47.97-2.01c1.42,0.11,8.06.72,10.22,2.39a83.686,83.686,0,0,1-2.44,11.28c-0.02.07-.04,0.15-0.06,0.22-0.05.2-.11,0.4-0.16,0.6-0.08.27-.15,0.53-0.23,0.81-0.05.19-.11,0.4-0.17,0.6-0.07.27-.15,0.54-0.23,0.82-0.06.2-.11,0.4-0.17,0.6-0.08.27-.17,0.56-0.25,0.84-0.06.2-.12,0.4-0.18,0.61-0.04.13-.07,0.25-0.11,0.39h-6.22v-19.16Zm38.43,24.08a3.5,3.5,0,0,1-2.64,1.03l-6.61-6.85a0.253,0.253,0,0,0-.36-0.01,0.263,0.263,0,0,0,0,.36l6.56,6.81a3.051,3.051,0,0,1-3.88,1.85l-5.47-5.76a0.255,0.255,0,1,0-.37.35l5.41,5.68a3.152,3.152,0,0,1-1.75,2,2.772,2.772,0,0,1-2.11-.25l-5.46-5.74a0.254,0.254,0,0,0-.36-0.01,0.263,0.263,0,0,0-.01.36l3.95,4.14,0.27,0.29,0.21,0.22,0.29,0.3,0.21,0.22,0.28,0.3,0.07,0.07c-0.09.05-.19,0.1-0.29,0.15a3.379,3.379,0,0,1-.88.3,3.859,3.859,0,0,1-.49.06,3.706,3.706,0,0,1-.57-0.02c-0.12-.01-0.25-0.03-0.38-0.05-0.15-.03-0.31-0.07-0.48-0.11-0.11-.03-0.22-0.06-0.33-0.1a4.587,4.587,0,0,1-.44-0.15c-0.1-.03-0.2-0.07-0.31-0.11-0.13-.06-0.27-0.12-0.41-0.18-0.1-.04-0.2-0.09-0.3-0.14-0.13-.06-0.26-0.12-0.39-0.19-0.09-.05-0.19-0.1-0.28-0.15-0.13-.06-0.26-0.13-0.39-0.2a0.673,0.673,0,0,1-.11-0.07,1.29,1.29,0,0,1-.16-0.09c-0.11-.07-0.23-0.15-0.36-0.23-0.09-.06-0.17-0.1-0.26-0.16l-0.34-.25c-0.09-.06-0.17-0.12-0.25-0.18-0.12-.08-0.22-0.16-0.34-0.25-0.08-.06-0.16-0.13-0.24-0.19-0.11-.08-0.22-0.17-0.33-0.26-0.09-.06-0.16-0.12-0.24-0.18l-0.33-.27c-0.08-.06-0.15-0.13-0.23-0.19-0.11-.09-0.22-0.18-0.32-0.27-0.08-.07-0.16-0.13-0.24-0.19l-0.31-.28a2.2,2.2,0,0,1-.23-0.2c-0.11-.09-0.21-0.18-0.32-0.27l-0.23-.2c-0.1-.09-0.21-0.18-0.31-0.28-0.08-.06-0.15-0.13-0.23-0.2l-0.31-.28-0.23-.2c-0.1-.09-0.2-0.19-0.3-0.28-0.08-.07-0.15-0.14-0.23-0.2-0.1-.1-0.2-0.19-0.3-0.29-0.08-.06-0.15-0.13-0.23-0.2-0.1-.1-0.2-0.19-0.3-0.29-0.08-.06-0.15-0.13-0.23-0.2-0.1-.1-0.2-0.19-0.3-0.29-0.07-.07-0.15-0.13-0.22-0.2-0.1-.1-0.2-0.19-0.3-0.29-0.08-.07-0.15-0.14-0.22-0.21-0.11-.09-0.21-0.19-0.31-0.29-0.07-.06-0.14-0.14-0.22-0.2-0.1-.1-0.2-0.2-0.3-0.29-0.07-.07-0.14-0.14-0.22-0.21-0.1-.1-0.2-0.2-0.3-0.29l-0.21-.21c-0.11-.1-0.2-0.19-0.3-0.29-0.08-.07-0.15-0.14-0.22-0.21-0.1-.1-0.2-0.2-0.3-0.29-0.07-.08-0.14-0.15-0.21-0.22-0.11-.1-0.2-0.19-0.3-0.29-0.07-.07-0.15-0.14-0.22-0.21l-0.29-.29-0.22-.22c-0.1-.1-0.21-0.2-0.29-0.29a2.282,2.282,0,0,1-.22-0.22l-0.29-.29c-0.09-.09-0.16-0.15-0.22-0.22l-0.09-.09c0.05-.19.1-0.37,0.15-0.55,0.06-.2.12-0.41,0.17-0.6,0.07-.26.14-0.5,0.21-0.75,1.35-4.91,2.06-8.29,2.42-10.29h9.82a6.858,6.858,0,0,0-.67.65c-4.63,4.5-3.39,7.23-3.33,7.35a0.324,0.324,0,0,0,.08.09,3.968,3.968,0,0,0,3.22.84,5.821,5.821,0,0,0,3.28-2.43c1.01,0.28,2.79-.68,3.34-1,4.4,3.17,11.78,10.84,12.36,11.45A2.677,2.677,0,0,1,1414.89,1465.49Zm0.33-2.98c-1.03-1.07-8.2-8.48-12.47-11.5a0.225,0.225,0,0,0-.27-0.01c-0.93.55-2.62,1.31-3.21,0.98a0.253,0.253,0,0,0-.34.08,5.537,5.537,0,0,1-3.07,2.39,3.507,3.507,0,0,1-2.76-.72c-0.13-.38-0.74-2.83,3.27-6.73,0.04-.05,4.24-4.87,10.01-2.09,4.7,2.26,6.87,2.81,7.63,2.94a132.29,132.29,0,0,0,3.33,13.55Z" transform="translate(-1375.97 -1440.88)"/>
</svg>
