<svg xmlns="http://www.w3.org/2000/svg" xmlns:xlink="http://www.w3.org/1999/xlink" preserveAspectRatio="xMidYMid" width="50" height="40" viewBox="0 0 101 70">
  <defs>
    <style>
      .cls-1 {
        fill: #0d1227;
        fill-rule: evenodd;
      }
    </style>
  </defs>
  <path d="M98.456,70.010 L76.829,70.010 C75.434,70.010 74.299,68.886 74.299,67.505 L74.299,66.253 L66.939,66.253 C57.336,66.253 53.114,59.470 52.939,59.181 L52.230,58.069 C51.339,58.151 45.870,58.623 38.448,58.623 C31.142,58.623 25.869,54.737 24.592,53.700 L15.906,62.203 C15.904,62.205 15.901,62.207 15.898,62.210 C15.894,62.214 15.889,62.218 15.884,62.223 C15.047,63.034 14.068,63.649 12.971,64.051 L4.122,67.298 L55.864,67.298 C56.141,67.298 56.366,67.520 56.366,67.795 C56.366,68.069 56.141,68.291 55.864,68.291 L0.495,68.291 C0.218,68.291 -0.007,68.069 -0.007,67.795 C-0.007,67.520 0.218,67.298 0.495,67.298 L1.431,67.298 L6.005,56.768 C6.416,55.823 6.995,54.970 7.728,54.238 L19.428,42.521 C18.836,42.722 18.223,42.847 17.604,42.847 C16.226,42.847 14.845,42.347 13.740,41.341 C12.590,40.293 11.936,38.865 11.899,37.318 C11.862,35.771 12.447,34.314 13.545,33.213 L25.431,21.307 C27.742,18.992 30.953,17.664 34.242,17.664 L44.247,17.664 L50.845,11.056 C50.853,11.047 50.849,11.033 50.858,11.023 C50.877,11.004 50.901,10.995 50.923,10.979 L56.888,5.004 C56.891,5.001 56.889,4.997 56.892,4.994 C56.897,4.989 56.905,4.987 56.910,4.982 L60.319,1.568 C61.329,0.558 62.674,0.002 64.108,-0.002 C64.112,-0.002 64.117,-0.002 64.121,-0.002 C65.550,-0.002 66.892,0.549 67.903,1.550 L68.877,2.515 C69.892,3.520 70.449,4.858 70.443,6.281 C70.437,7.704 69.870,9.036 68.847,10.035 L65.452,13.342 C65.451,13.343 65.451,13.344 65.451,13.345 C65.449,13.346 65.447,13.347 65.445,13.348 L59.493,19.147 C59.490,19.149 59.492,19.153 59.489,19.156 C59.484,19.162 59.476,19.163 59.470,19.169 L56.265,22.291 C58.235,23.425 64.712,27.781 72.198,39.527 L74.299,39.527 L74.299,35.314 C74.299,33.931 75.434,32.809 76.829,32.809 L98.456,32.809 C99.851,32.809 100.986,33.932 100.986,35.314 L100.986,67.505 C100.986,68.886 99.851,70.010 98.456,70.010 ZM51.597,57.126 L51.616,57.107 L50.948,56.059 L49.731,57.264 C50.533,57.211 51.166,57.162 51.597,57.126 ZM48.944,57.314 L50.663,55.612 L49.994,54.564 L47.115,57.415 C47.782,57.382 48.392,57.348 48.944,57.314 ZM46.341,57.452 L49.709,54.117 L49.041,53.070 L44.544,57.523 C45.171,57.501 45.777,57.478 46.341,57.452 ZM43.782,57.548 L48.756,52.623 L48.086,51.573 L42.009,57.592 C42.619,57.579 43.213,57.565 43.782,57.548 ZM41.258,57.606 L47.801,51.127 L47.133,50.080 L39.513,57.625 C40.108,57.621 40.693,57.615 41.258,57.606 ZM38.448,57.629 C38.558,57.629 38.664,57.628 38.773,57.628 L46.848,49.633 L46.653,49.326 L45.432,49.326 L37.098,57.578 C37.540,57.609 37.989,57.629 38.448,57.629 ZM36.429,57.510 L44.695,49.326 L42.968,49.326 L34.922,57.294 C35.411,57.384 35.914,57.456 36.429,57.510 ZM34.298,57.181 L42.231,49.326 L40.505,49.326 L32.924,56.833 C33.369,56.960 33.825,57.079 34.298,57.181 ZM32.364,56.658 L39.768,49.326 L38.041,49.326 L31.086,56.213 C31.495,56.370 31.922,56.518 32.364,56.658 ZM30.558,56.006 L37.305,49.326 L35.928,49.326 C35.819,49.326 35.717,49.301 35.610,49.295 L29.369,55.474 C29.746,55.655 30.141,55.833 30.558,56.006 ZM28.875,55.234 L34.941,49.228 C34.480,49.145 34.044,49.004 33.630,48.816 L27.760,54.629 C28.105,54.828 28.474,55.030 28.875,55.234 ZM27.298,54.356 L33.153,48.559 C32.795,48.351 32.460,48.113 32.159,47.834 L26.254,53.681 C26.555,53.888 26.900,54.114 27.298,54.356 ZM25.823,53.378 L31.803,47.458 C31.673,47.312 31.542,47.167 31.428,47.008 L25.313,52.995 C25.445,53.099 25.617,53.229 25.823,53.378 ZM2.767,66.736 L12.622,63.120 C13.531,62.788 14.343,62.282 15.050,61.628 C15.027,61.073 14.789,59.200 12.685,57.117 C10.618,55.070 8.858,55.020 8.340,55.058 C7.748,55.676 7.266,56.377 6.926,57.159 L2.767,66.736 ZM34.242,18.658 C31.221,18.658 28.269,19.878 26.146,22.005 L14.260,33.911 C13.354,34.818 12.873,36.019 12.903,37.293 C12.933,38.568 13.472,39.745 14.419,40.609 C16.313,42.334 19.196,42.249 20.983,40.417 L31.071,30.074 C31.577,29.554 32.158,28.992 33.011,28.917 L43.255,18.658 L34.242,18.658 ZM68.143,9.326 C68.975,8.516 69.436,7.432 69.440,6.277 C69.445,5.121 68.992,4.034 68.167,3.217 L67.194,2.252 C66.373,1.439 65.282,0.991 64.121,0.991 C64.117,0.991 64.114,0.991 64.110,0.991 C62.945,0.994 61.852,1.447 61.032,2.266 L57.962,5.340 L65.093,12.298 L68.143,9.326 ZM64.377,12.995 L57.256,6.047 L51.948,11.364 L59.117,18.119 L64.377,12.995 ZM58.401,18.816 L51.242,12.071 L9.254,54.122 C10.265,54.280 11.773,54.809 13.394,56.414 C15.129,58.132 15.734,59.740 15.945,60.767 L30.912,46.117 C30.593,45.426 30.404,44.665 30.404,43.857 C30.404,40.842 32.882,38.388 35.928,38.388 L38.309,38.388 L58.401,18.816 ZM74.299,40.519 L71.922,40.519 C71.750,40.519 71.589,40.431 71.497,40.287 C63.748,28.051 56.982,23.828 55.521,23.015 L39.740,38.388 L53.369,38.388 C53.646,38.388 53.870,38.611 53.870,38.885 C53.870,39.159 53.646,39.382 53.369,39.382 L38.515,39.382 C38.512,39.382 38.509,39.382 38.506,39.382 L35.928,39.382 C33.436,39.382 31.408,41.390 31.408,43.857 C31.408,46.324 33.436,48.333 35.928,48.333 L46.929,48.333 C47.101,48.333 47.261,48.420 47.353,48.564 L53.793,58.660 C53.839,58.734 57.922,65.260 66.939,65.260 L74.299,65.260 L74.299,40.519 ZM99.982,35.314 C99.982,34.480 99.298,33.802 98.456,33.802 L76.829,33.802 C75.987,33.802 75.302,34.481 75.302,35.314 L75.302,67.505 C75.302,68.339 75.987,69.017 76.829,69.017 L98.456,69.017 C99.298,69.017 99.982,68.339 99.982,67.505 L99.982,35.314 ZM87.685,64.011 C85.678,64.011 84.046,62.394 84.046,60.407 C84.046,58.419 85.678,56.803 87.685,56.803 C89.693,56.803 91.325,58.419 91.325,60.407 C91.325,62.394 89.693,64.011 87.685,64.011 ZM87.685,57.796 C86.231,57.796 85.049,58.968 85.049,60.407 C85.049,61.845 86.231,63.017 87.685,63.017 C89.140,63.017 90.322,61.845 90.322,60.407 C90.322,58.968 89.140,57.796 87.685,57.796 Z" class="cls-1"/>
</svg>
