<svg xmlns="http://www.w3.org/2000/svg" width="39" height="32" viewBox="0 0 39 32">
  <defs>
    <style>
      .cls-1 {
        fill: #0d1227;
        fill-rule: evenodd;
      }
    </style>
  </defs>
  <path id="value-4.svg" class="cls-1" d="M594.406,1783.79l-0.3.72,3.413-3.4,2.449-2.79-0.059-.01Zm-1.613,2.03,0.395-.39,0.3-.72-0.822.82Zm2.09-3.19,4.479-4.46-0.343-.08-3.84,3.82Zm-2.56,2.13,0.13,0.29,1.508-1.5,0.3-.72Zm-0.462.46,0.205,0.22,0-.01-0.13-.29Zm3.8-4.47,2.811-2.8-0.343-.08-2.172,2.16Zm-3.544,3.53,2.622-2.61,0.3-.72-3.049,3.03Zm-0.512.08-0.272.28,0.2,0.22,0.2-.2Zm4.829-5.49,1.144-1.14-0.343-.08-0.5.5Zm-4.657,4.64,3.736-3.72,0.3-.72-4.163,4.14Zm-0.512.08-0.465.47,0.2,0.22,0.391-.39Zm-0.339-.77-0.659.66,0.2,0.22,0.584-.58Zm0.382-.38,0.13,0.3,4.848-4.83,0.185-.45-0.13-.03Zm-0.21-.47,4.692-4.68-0.343-.08-4.479,4.46Zm-0.512.08-0.851.85,0.2,0.22,0.777-.77Zm-0.34-.77-1.044,1.04,0.205,0.22,0.97-.97Zm0.513-.09,4.138-4.12-0.343-.08-3.926,3.91Zm-0.34-.77,3.584-3.57-0.036-.01a1.605,1.605,0,0,1-.281-0.1l-3.4,3.39Zm-0.512.09-1.237,1.23,0.2,0.22,1.163-1.16Zm-0.34-.77-1.43,1.42,0.2,0.22,1.355-1.35Zm0.512-.09,3.114-3.1c-0.1-.04-0.195-0.09-0.292-0.13l-2.952,2.94Zm-0.339-.77,2.708-2.7-0.275-.15-2.563,2.55Zm-0.512.08-1.623,1.62,0.2,0.22,1.549-1.54Zm-0.34-.77-1.816,1.81,0.2,0.22,1.742-1.73Zm0.512-.08,2.351-2.34c-0.087-.06-0.174-0.11-0.261-0.17l-2.22,2.21Zm-0.852-.69-2.009,2,0.205,0.22,1.934-1.92Zm0.512-.08,2.031-2.03c-0.083-.06-0.165-0.11-0.247-0.18l-1.914,1.91Zm-0.852-.69-2.2,2.19,0.2,0.22,2.127-2.11Zm0.513-.09,1.74-1.73c-0.078-.06-0.157-0.12-0.235-0.19l-1.636,1.63Zm-0.852-.68-2.395,2.38,0.2,0.23,2.32-2.32Zm0.512-.09,1.477-1.47c-0.076-.06-0.152-0.13-0.227-0.2l-1.38,1.38Zm-0.852-.68-2.587,2.57,0.2,0.23,2.513-2.51Zm0.512-.09,1.235-1.23c-0.074-.07-0.147-0.13-0.22-0.2l-1.145,1.14Zm-0.852-.68-2.78,2.76,0.205,0.23,2.706-2.7Zm0.513-.09,1.01-1.01-0.213-.21-0.928.92Zm-0.852-.69-2.973,2.97,0.2,0.22,2.9-2.89Zm0.512-.08,0.8-.8c-0.069-.07-0.139-0.15-0.207-0.22l-0.726.72Zm-0.852-.69-3.166,3.16,0.2,0.22,3.092-3.08Zm0.512-.08,0.611-.61c-0.068-.08-0.136-0.15-0.2-0.22l-0.539.53Zm-0.852-.69-3.359,3.35,0.2,0.22,3.285-3.27Zm0.513-.08,0.43-.43c-0.066-.08-0.133-0.16-0.2-0.23l-0.364.36Zm-0.34-.78,0.262-.26c-0.064-.08-0.129-0.15-0.192-0.23l-0.2.2Zm-0.513.09-3.551,3.54,0.2,0.22,3.478-3.47Zm0.173-.86,0.106-.1-0.188-.24-0.048.05Zm-0.512.09-3.745,3.73,0.2,0.22,3.671-3.66Zm-0.34-.77-3.937,3.92,0.2,0.22,3.864-3.85Zm-0.339-.78-4.131,4.12,0.2,0.22,4.057-4.04Zm-0.34-.77-4.323,4.31,0.2,0.22,4.249-4.23Zm-0.34-.77-4.516,4.5,0.2,0.22,4.443-4.42Zm-0.339-.77-4.709,4.69,0.2,0.22,4.635-4.61Zm-0.34-.77-4.9,4.88,0.2,0.22,4.828-4.8Zm-0.828-.29-4.607,4.59,0.205,0.22,4.829-4.81h-0.427Zm0.149-1.25-0.761.75h0.428l0.463-.46Zm-1.264,1.25-4.025,4.01,0.205,0.22,4.248-4.23h-0.428Zm-1.114,0-3.443,3.43,0.2,0.23,3.667-3.66h-0.428Zm2.038-2.03-1.535,1.53h0.428l1.237-1.23Zm-3.152,2.03-2.861,2.85,0.2,0.23,3.085-3.08h-0.428Zm2.813-2.8-2.31,2.3h0.428l2.012-2Zm-0.34-.77-3.084,3.07H579.1l2.786-2.77Zm-3.587,3.57-2.28,2.28,0.2,0.22,2.5-2.5h-0.428Zm3.247-4.34-3.858,3.84h0.428l3.561-3.54Zm-4.361,4.34-1.7,1.7,0.205,0.22,1.922-1.92H577.05Zm4.022-5.11-4.633,4.61h0.427l4.336-4.32Zm-5.136,5.11-1.117,1.12,0.2,0.22,1.34-1.34h-0.427Zm-1.114,0-0.536.54,0.205,0.22,0.758-.76h-0.427Zm5.91-5.88-5.407,5.38h0.427l5.111-5.09Zm-0.339-.78-6.182,6.16h0.427l5.885-5.86Zm-6.6,6.66,0.162,0.18,0.177-.18H573.8Zm6.257-7.43-5.623,5.6-0.583,1.01,6.336-6.31Zm-0.34-.77-3.763,3.75-0.583,1.01,4.477-4.46Zm-2.243,1.13-0.583,1,2.617-2.6-0.13-.3Zm1.564-2.67-0.045.04-0.583,1.01,0.758-.76Zm32.895,9.37-5.831-10.07a0.274,0.274,0,0,0-.113-0.1s0,0-.01-0.01-0.016.01-.025,0-0.045-.01-0.07-0.01H592.47v-0.01s0,0,0,.01H579.056a0.2,0.2,0,0,0-.076.02c-0.009,0-.017-0.01-0.025,0h-0.006a0.17,0.17,0,0,0-.014.01,0.239,0.239,0,0,0-.1.09l-5.831,10.07a0.237,0.237,0,0,0-.029.14,0.2,0.2,0,0,0,.012.04,0.189,0.189,0,0,0,.017.07c0.006,0.01.016,0.01,0.023,0.02a0.036,0.036,0,0,0,.009.02l19.7,21.43a0.014,0.014,0,0,1,.015.01,0.3,0.3,0,0,1,.058.04c0.007,0,.009.01,0.016,0.01a0.059,0.059,0,0,0,.04.01c0.006,0,.011.01,0.018,0.01h0.038a0.231,0.231,0,0,0,.138-0.04,0.061,0.061,0,0,0,.007-0.01,0.046,0.046,0,0,1,.02-0.02c0.007-.01.019-0.01,0.025-0.02l18.79-21.42a0.266,0.266,0,0,0,.058-0.16s0,0,0-.01a0.2,0.2,0,0,0-.014-0.03A0.226,0.226,0,0,0,611.929,1765.19Zm-15.462,12.27-0.185.45-0.476,1.16-0.3.72-0.477,1.16-0.3.72-0.477,1.16-0.3.72-0.477,1.16-0.3.72-0.275.67-0.12-.28-0.131-.29-0.209-.48-0.13-.29-0.21-.48-0.13-.3-0.21-.47-0.13-.3-0.209-.47-0.13-.3-0.21-.47-0.13-.3-0.209-.48-0.131-.29-0.209-.48-0.13-.29-0.21-.48-0.13-.29-0.209-.48-0.13-.3-0.21-.47-0.13-.3-0.21-.47-0.13-.3-0.209-.48-0.131-.29-0.209-.48-0.13-.29-0.21-.48-0.13-.29-0.209-.48-0.131-.3-0.209-.47-0.13-.3-0.21-.47-0.13-.3-0.209-.47-0.131-.3-0.209-.48-0.13-.29-0.21-.48-0.13-.29-0.113-.26-1.883-4.28h17.488Zm-4.4,7.98-0.205-.22-0.328-.36-0.2-.22-0.329-.36-0.2-.22-0.328-.36-0.2-.22-0.328-.36-0.2-.22-0.328-.36-0.205-.22-0.328-.36-0.2-.22-0.328-.36-0.2-.22-0.328-.36-0.2-.22-0.329-.36-0.2-.22-0.328-.36-0.205-.22-0.328-.36-0.2-.22-0.328-.35-0.2-.23-0.328-.35-0.2-.23-0.328-.35-0.205-.23-0.328-.35-0.2-.22-0.329-.36-0.2-.22-0.328-.36-0.2-.22-0.328-.36-0.2-.22-0.329-.36-0.2-.22-0.328-.36-0.2-.22-0.329-.36-0.2-.22-0.328-.36-0.2-.22-0.329-.36-0.2-.22-0.328-.36-0.2-.22-0.329-.36-0.2-.22-0.328-.36-0.205-.22-0.328-.36-0.205-.22-0.328-.35-0.2-.23-0.328-.35-0.2-.23-0.329-.35-0.2-.22-0.328-.36-0.205-.22-0.328-.36-0.2-.22-0.328-.36-0.205-.22-0.328-.36-0.162-.18h9.527l0.126,0.29,0.13,0.3,0.21,0.47,0.13,0.3,0.209,0.47,0.131,0.3,0.067,0.15,0.142,0.32,0.13,0.3,0.21,0.47,0.13,0.3,0.209,0.48,0.131,0.29,0.209,0.48,0.13,0.29,0.209,0.48,0.131,0.29,0.209,0.48,0.131,0.3,0.209,0.47,0.13,0.3,0.21,0.47,0.13,0.3,0.209,0.48,0.131,0.29,0.209,0.48,0.13,0.29,0.21,0.48,0.13,0.29,0.209,0.48,0.13,0.3,0.21,0.47,0.13,0.3,0.21,0.47,0.13,0.3,0.21,0.47,0.13,0.3,0.209,0.48,0.13,0.29,0.21,0.48,0.13,0.29,0.209,0.48,0.131,0.29,0.209,0.48,0.13,0.3,0.21,0.47,0.13,0.3,0.209,0.47,0.13,0.3,0.21,0.47,0.13,0.3,0.21,0.48,0.13,0.29,0.01,0.02Zm-15.179-25.95,0.583-1,0.936-1.62,0.583-1.01,0.037-.06,0.008,0.02,0.13,0.29,0.21,0.48,0.13,0.3,0.209,0.47,0.131,0.3,0.209,0.47,0.13,0.3,0.21,0.47,0.13,0.3,0.209,0.48,0.131,0.29,0.209,0.48,0.13,0.29,0.209,0.48,0.131,0.3,0.209,0.47,0.13,0.3,0.21,0.47,0.13,0.3,0.209,0.47,0.13,0.3,0.21,0.48,0.13,0.29,0.2,0.46H573.66l0.187-.32,0.583-1.01,0.937-1.61,0.583-1.01,0.686-1.18Zm7.162,5.57,8.423-9.44,8.694,9.44H584.049Zm21.869-9.25,5.358,9.25h-9.161Zm-0.413-.31-3.848,9.35-8.616-9.35h12.464Zm-13.6,0-8.348,9.35-4.12-9.35h12.468Zm8.062,22.82-2.449,2.79-3.8,4.33,0.382-.93,0.3-.72,0.477-1.16,0.3-.72,0.478-1.16,0.3-.72,0.477-1.16,0.3-.72,0.234-.57,4.944-12.02h9.253Z" transform="translate(-572.969 -1755)"/>
</svg>
